<svg width="1920" height="301" viewBox="0 0 1920 301" fill="none" xmlns="http://www.w3.org/2000/svg">
<g clip-path="url(#clip0_2082_14117)">
<rect width="1920" height="301" fill="#075A5A"/>
<path opacity="0.5" d="M155.55 105.494L0 60.4601V301H1920V-69L1881.67 9.30059C1856.47 60.7837 1800.21 89.3369 1743.78 79.2807L1720.59 75.1486C1671.62 66.4223 1622.7 90.723 1600.07 135.016C1573.85 186.338 1513.22 209.723 1459.33 189.301L1415.52 172.701C1376.65 157.973 1333.06 162.964 1298.53 186.097L1219.86 238.794C1178.98 266.181 1126.04 267.802 1083.56 242.966L966.305 174.422C934.073 155.579 895.236 151.694 859.91 163.779L646.28 236.861C615.329 247.449 581.504 245.828 551.707 232.33L501.822 209.731C467.038 193.974 426.657 196.791 394.398 217.226C338.136 252.866 263.418 232.547 232.954 173.322L229.293 166.204C214.109 136.685 187.435 114.725 155.55 105.494Z" fill="#C6FBFB"/>
<path d="M156.382 163.165L0 120.888V301H1920V0L1882.26 72.0013C1856.51 121.127 1802.13 148.172 1747.42 139.067L1716.84 133.979C1669.72 126.139 1622.81 148.954 1599.88 190.852C1573.44 239.182 1515.84 261.194 1463.9 242.816L1404.08 221.65C1371.76 210.211 1336.2 212.174 1305.33 227.102L1205.17 275.534C1171.71 291.712 1132.88 292.605 1098.72 277.984L959.557 218.429C931.169 206.28 899.354 204.765 869.94 214.161L643.408 286.525C614.17 295.865 582.554 294.426 554.285 282.468L501.07 259.957C466.49 245.329 427.02 247.977 394.704 267.093C337.22 301.095 262.493 279.902 230.269 221.402C214.58 192.92 187.773 171.651 156.382 163.165Z" fill="#D8F0F0"/>
</g>
<defs>
<clipPath id="clip0_2082_14117">
<rect width="1920" height="301" fill="white"/>
</clipPath>
</defs>
</svg>
