<svg width="1512" height="900" viewBox="0 0 1512 900" fill="none" xmlns="http://www.w3.org/2000/svg">
<g clip-path="url(#clip0_2076_3704)">
<path d="M1129.04 870.39C1129 870.346 1128.96 870.303 1128.92 870.26Z" fill="#075A5A"/>
<path d="M1126.37 837.186C1126.23 837.023 1126.08 836.861 1125.94 836.699C1126.08 836.861 1126.22 837.022 1126.37 837.184L1126.37 837.186Z" fill="#075A5A"/>
<path d="M1156.2 686.133L1156.21 686.136Z" fill="#075A5A"/>
<path d="M1127.92 524.561C1127.92 524.561 1127.92 524.561 1127.92 524.561Z" fill="#075A5A"/>
<path d="M1160.55 854.093C1160.55 854.093 1160.55 854.093 1160.55 854.093Z" fill="#075A5A"/>
<path fill-rule="evenodd" clip-rule="evenodd" d="M1103.81 869.422L1103.79 869.422C1098.5 869.495 1093.46 871.673 1089.76 875.485C1086.06 879.293 1084.02 884.422 1084.06 889.751C1084.14 892.383 1086.22 894.484 1090.36 895.951C1094.41 897.387 1099.76 897.933 1104.78 897.81L1104.79 897.81C1107.32 897.756 1109.84 897.514 1112.33 897.084L1114.72 896.672L1114.46 899.081C1114.32 900.398 1114.27 901.722 1114.3 903.046C1114.41 907.431 1118.11 910.966 1124.97 913.399C1131.7 915.787 1140.76 916.812 1149.9 916.588L1149.91 916.587L1149.93 916.587C1158.06 916.536 1166.14 915.172 1173.84 912.545C1178.73 910.681 1181.48 908.548 1182.99 906.602C1184.49 904.682 1184.87 902.832 1184.83 901.321C1184.65 895.9 1183.15 890.606 1180.46 885.907C1177.77 881.205 1173.98 877.242 1169.41 874.367L1167.18 872.963L1169.27 871.366C1181.71 861.884 1191.92 849.751 1199.15 835.833C1205.91 821.378 1207.93 803.786 1205.24 780.307L1205.24 780.303L1205.24 780.299C1204.51 773.702 1203.45 767.067 1202.41 760.535L1202.23 759.423C1200.2 747.935 1198.84 736.337 1198.16 724.688L1198.16 724.666L1198.16 724.644C1197.12 693.655 1207.1 663.865 1229.31 630.981L1231.09 628.359L1228.15 629.809C1203.07 642.155 1178.36 656.881 1163.48 686.612L1161.82 689.929L1157.77 681.588C1157.6 681.25 1157.42 680.911 1157.24 680.571C1150.78 668.199 1143.77 654.794 1143.42 640.686L1143.42 640.654L1143.42 640.623C1143.51 631.919 1144.71 623.264 1146.99 614.869L1147 614.854L1147 614.839C1149.78 605.24 1150.89 595.228 1150.28 585.247C1148.48 575.921 1145.38 566.897 1141.07 558.442L1141.04 558.377L1141.01 558.31C1140.89 558.014 1140.77 557.719 1140.65 557.423L1140.62 557.36C1137.91 550.793 1135.19 544.205 1133.81 537.772C1132.35 530.978 1132.34 524.19 1135.45 517.574L1135.45 517.571L1136.75 514.838L1134.35 516.269C1119.75 525.385 1102.5 536.296 1097.57 554.81C1095.8 562.753 1095.4 570.942 1096.36 579.024L1096.36 579.027C1097.23 586.356 1097.03 593.773 1095.76 601.042L1095.76 601.087L1095.75 601.132C1094.59 606.245 1093.15 611.288 1091.42 616.235L1091.41 616.243L1091.41 616.252C1089.4 621.829 1087.77 627.538 1086.53 633.339C1083.86 647.484 1089.36 662.952 1093.62 674.851C1097.84 686.6 1102.41 700.878 1097.89 714.769L1097.87 714.801L1097.86 714.833C1094.83 723.081 1090.74 730.895 1085.7 738.076C1082.19 743.33 1079.03 748.812 1076.24 754.486C1069.8 768.934 1068.12 785.078 1071.43 800.562C1074.75 816.047 1082.9 830.058 1094.68 840.552C1098.72 843.905 1102.94 847.024 1107.33 849.896L1107.35 849.908L1107.39 849.932C1109.4 851.318 1111.44 852.721 1113.43 854.174C1120.13 858.805 1126.22 864.281 1131.54 870.469L1132.98 872.145L1131.06 873.246C1128.55 874.69 1126.23 876.445 1124.14 878.471L1122.6 879.971L1121.37 878.21C1119.4 875.392 1116.76 873.114 1113.7 871.58C1110.64 870.046 1107.24 869.305 1103.83 869.421L1103.81 869.422ZM1163.75 697.849L1163.75 697.855L1163.75 697.86C1171.37 715.685 1172.45 730.915 1166.23 742.593C1164.17 746.569 1161.57 750.238 1158.51 753.495L1158.48 753.52L1153.29 758.62C1150.32 761.546 1147.55 764.669 1144.99 767.968C1138.86 776.198 1135.23 786.036 1134.53 796.3C1133.82 806.558 1136.08 816.802 1141.02 825.801C1142.88 828.902 1144.9 831.906 1147.06 834.805L1147.07 834.814L1147.08 834.824C1149.14 837.669 1151.11 840.44 1152.85 843.425L1152.86 843.428L1152.86 843.432C1153.06 843.779 1153.24 844.137 1153.4 844.503C1154.88 847.17 1156.08 849.98 1157 852.892C1158.06 856.213 1158.78 859.638 1159.12 863.11L1159.13 863.132L1159.13 863.155C1159.24 864.598 1159.27 866.044 1159.23 867.49L1159.18 869.781L1156.96 869.215C1156.06 868.987 1155.15 868.825 1154.23 868.728L1154.18 868.723L1154.13 868.715C1152.84 868.506 1151.53 868.408 1150.22 868.422L1150.16 868.422L1150.11 868.42C1149.56 868.392 1149.02 868.405 1148.48 868.46L1148.41 868.466L1146.52 868.513L1146.01 867.454C1145.49 866.384 1144.93 865.324 1144.33 864.319C1139.53 856.252 1133.98 848.669 1127.74 841.674L1127.7 841.627L1127.66 841.578C1126.81 840.482 1125.94 839.475 1125.02 838.428C1124.64 837.988 1124.25 837.541 1123.85 837.077L1123.85 837.072L1123.63 836.822C1113.21 824.809 1100.92 810.641 1101.4 790.867L1101.4 790.866C1101.55 784.781 1103.72 779.006 1106.84 773.414C1109.95 767.835 1114.08 762.304 1118.24 756.739C1125.94 746.327 1133.5 736.062 1135.18 724.848C1136.65 713.668 1134.76 702.298 1129.75 692.21L1129.72 692.163L1129.7 692.114C1129.66 692.022 1129.61 691.94 1129.53 691.872C1129.46 691.804 1129.38 691.752 1129.29 691.717C1129.2 691.683 1129.11 691.667 1129.01 691.671C1128.92 691.674 1128.83 691.696 1128.74 691.737L1128.72 691.748L1128.69 691.758C1128.6 691.798 1128.52 691.856 1128.45 691.929C1128.38 692.003 1128.32 692.09 1128.28 692.187C1128.24 692.284 1128.22 692.388 1128.23 692.493C1128.23 692.584 1128.24 692.675 1128.28 692.76C1133.22 702.522 1135.15 713.548 1133.82 724.42L1133.82 724.44L1133.81 724.459C1133.01 730.015 1130.62 735.382 1127.59 740.532C1124.66 745.5 1121.06 750.377 1117.58 755.094L1117.2 755.613L1117.19 755.621C1112.89 761.322 1108.64 766.997 1105.41 772.866C1102.19 778.723 1100.06 784.66 1099.9 790.849L1099.9 790.852C1099.38 811.201 1112.06 825.909 1122.76 838.185L1122.78 838.199L1126.59 842.762C1133.09 849.98 1138.82 857.87 1143.68 866.3L1144.99 868.564L1142.41 869.014C1140.1 869.418 1137.84 870.08 1135.67 870.988L1134.42 871.513L1133.55 870.466C1127.99 863.726 1121.52 857.797 1114.34 852.85L1114.32 852.836L1108.16 848.339C1103.78 845.555 1099.57 842.507 1095.56 839.211L1095.54 839.187L1095.51 839.163C1084.03 828.937 1076.09 815.292 1072.85 800.216C1069.6 785.139 1071.22 769.416 1077.47 755.331L1077.48 755.294L1077.5 755.259C1080.29 749.644 1083.44 744.215 1086.91 739.004L1086.93 738.986L1086.94 738.968C1092.06 731.683 1096.19 723.745 1099.23 715.363C1103.7 701.246 1099.39 686.738 1094.96 674.429L1094.94 674.369C1090.55 662.174 1085.38 647.792 1087.93 633.743L1087.93 633.715L1087.94 633.688C1089.16 627.953 1090.78 622.311 1092.79 616.805C1094.56 611.883 1096.05 606.866 1097.26 601.776C1098.54 594.396 1098.76 586.868 1097.92 579.423C1096.93 571.429 1097.29 563.323 1099 555.453L1099.01 555.412L1099.02 555.371C1102.95 540.596 1114.92 530.84 1128.99 521.663L1132.57 519.325L1131.78 523.532C1129.61 535.107 1134.61 546.839 1139.87 558.915C1143.97 567.271 1146.89 576.167 1148.53 585.34L1148.55 585.445L1148.56 585.551C1149.16 595.375 1148.05 605.23 1145.29 614.672C1142.91 623.171 1141.66 631.952 1141.57 640.785C1142.35 655.635 1149.33 669.046 1156.31 682.367L1156.31 682.375L1156.32 682.383C1156.8 683.334 1157.3 684.29 1157.81 685.25L1157.81 685.253L1157.81 685.253C1158.83 687.211 1159.86 689.187 1160.82 691.184L1160.99 691.538L1161 691.847C1162.02 693.896 1162.91 695.934 1163.75 697.849ZM1154.23 759.968L1154.38 766.04C1154.48 767.418 1154.58 768.791 1154.68 770.154L1154.68 770.163C1155.02 774.767 1155.35 779.249 1155.46 783.42L1155.52 786.172C1156.82 803.276 1156.61 820.461 1154.92 837.528L1154.43 842.429L1148.4 833.831C1146.27 830.984 1144.29 828.024 1142.48 824.963L1142.47 824.94L1142.45 824.916C1137.64 816.206 1135.44 806.281 1136.1 796.34C1136.77 786.398 1140.29 776.864 1146.22 768.889L1146.23 768.872L1146.24 768.856C1147.78 766.888 1149.45 765.027 1151.18 763.19L1154.23 759.968ZM1197.44 835.102L1197.41 835.152L1197.39 835.2C1189.72 849.548 1178.93 861.97 1165.83 871.54L1164.92 872.203L1163.92 871.694C1163.23 871.341 1162.51 871.032 1161.78 870.767L1160.53 870.311L1160.58 868.975C1160.64 867.498 1160.6 866.018 1160.47 864.546L1160.41 863.901L1160.77 863.364C1173.69 844.119 1185.29 813.55 1180.55 768.176C1180.52 767.954 1180.41 767.755 1180.24 767.617C1180.07 767.481 1179.86 767.415 1179.66 767.425C1179.46 767.454 1179.27 767.557 1179.14 767.72C1179.01 767.888 1178.94 768.106 1178.96 768.326C1183.41 810.625 1173.41 839.594 1162.75 857.593L1160.38 861.6L1159.39 857.049C1158.49 852.912 1157.09 848.904 1155.2 845.119L1154.94 844.592L1155.03 844.012C1157.25 830.341 1158.06 816.476 1157.46 802.637L1157.46 802.62L1156.99 783.297C1156.84 778.952 1156.51 774.28 1156.16 769.355C1156.08 768.231 1156 767.095 1155.92 765.945C1155.54 763.792 1155.48 761.609 1155.43 759.586L1155.41 758.698L1156.01 758.138C1160.6 753.867 1164.52 748.934 1167.67 743.501C1174.39 730.619 1173.12 713.591 1163.17 692.668L1162.81 691.907L1163.16 691.138C1175.8 662.786 1197.65 647.543 1219.9 635.771L1225.89 632.6L1222.3 638.353C1203.59 668.4 1195.33 696.022 1196.3 724.589C1196.96 736.311 1198.32 747.983 1200.38 759.54L1200.38 759.555L1200.39 759.57C1201.48 766.361 1202.59 773.461 1203.41 780.391C1206.13 803.267 1204.14 820.534 1197.44 835.102ZM1143.17 914.529L1140.91 914.584L1140.82 914.579C1133.9 914.108 1127.83 912.86 1123.4 910.949C1119.13 909.106 1115.67 906.309 1115.54 902.377L1115.54 902.371L1115.54 902.365C1115.49 900.437 1115.64 898.508 1115.98 896.611C1116.12 895.518 1116.36 894.44 1116.7 893.39C1117.02 892.082 1117.47 890.808 1118.03 889.586C1118.49 888.451 1119.04 887.358 1119.68 886.32C1120.32 885.132 1121.07 884.003 1121.91 882.948C1122.55 882.064 1123.26 881.222 1124.01 880.428C1126.44 877.783 1129.28 875.561 1132.43 873.851L1132.44 873.848L1132.44 873.845C1133.19 873.448 1134.01 873.035 1134.89 872.662C1135.75 872.241 1136.64 871.888 1137.56 871.605C1138.49 871.233 1139.45 870.93 1140.43 870.699C1141.68 870.355 1142.95 870.107 1144.23 869.96L1144.25 869.958L1144.26 869.957C1145.34 869.853 1146.43 869.824 1147.51 869.872L1150.41 869.801L1150.44 869.802C1152.53 869.832 1154.61 870.077 1156.65 870.535L1157.6 870.511L1160.5 871.424L1160.5 871.424C1161.39 871.7 1162.26 872.027 1163.1 872.405C1164.28 872.875 1165.42 873.445 1166.5 874.109C1171.3 876.718 1175.34 880.544 1178.22 885.205C1181.1 889.881 1182.72 895.236 1182.91 900.735L1182.91 900.745L1182.91 900.754C1182.97 903.07 1181.72 905.042 1179.93 906.606C1178.14 908.17 1175.63 909.496 1172.68 910.585C1166.75 912.768 1158.59 914.15 1149.52 914.373L1145.9 914.462C1144.99 914.531 1144.08 914.553 1143.17 914.529ZM1115.06 893.6L1114.77 894.691L1113.66 894.919C1110.63 895.542 1107.55 895.893 1104.46 895.967C1099.26 896.095 1094.77 895.51 1091.5 894.539C1089.88 894.056 1088.47 893.453 1087.42 892.733C1086.44 892.066 1085.36 891.018 1085.27 889.544L1085.27 889.48L1085.27 889.415C1085.31 884.509 1087.28 879.817 1090.76 876.371C1094.22 872.934 1098.9 871.017 1103.77 871.04C1107.15 870.92 1110.5 871.705 1113.47 873.313C1116.46 874.928 1118.96 877.314 1120.73 880.225L1121.38 881.292L1120.62 882.284C1118.04 885.65 1116.16 889.496 1115.06 893.6Z" fill="#075A5A"/>
<path d="M-618.1 882.194L-825.09 826.502C-999.291 779.633 -1171.25 908.682 -1174.92 1089.04C-1178.07 1243.68 -1054.27 1371.1 -899.605 1372.41L359.796 1383.1L1586.69 1443.03C1853.84 1456.08 2055.46 1203.86 1983.88 946.141C1926.53 739.693 1714.17 617.425 1506.84 671.485L1470.62 680.931L1172.64 791.2C1040.9 839.951 897.064 845.482 761.972 806.993L514.161 736.39C398.535 703.446 276.114 702.652 160.069 734.091L-385.845 881.992C-461.884 902.592 -542.025 902.662 -618.1 882.194Z" fill="#71BABA"/>
<path d="M1282.38 822.57C1280.21 823.407 1277.97 824.256 1275.66 824.146C1273.35 824.036 1270.93 822.691 1270.29 820.453C1270.19 820.102 1270.13 819.726 1269.91 819.44C1269.6 819.042 1269.06 818.921 1268.56 818.9C1266.84 818.805 1265.15 819.497 1263.44 819.49C1261.72 819.476 1259.73 818.274 1259.91 816.548C1260.04 815.336 1261.18 814.057 1260.44 813.094C1260.11 812.647 1259.5 812.537 1258.95 812.453C1257.3 812.201 1255.66 811.949 1254.02 811.697C1252.33 811.44 1250.29 810.847 1249.98 809.165C1249.63 807.231 1251.84 805.982 1253.2 804.565C1250.91 801.747 1245.55 802.264 1244.33 798.841C1243.74 797.22 1244.64 795.21 1246.24 794.575C1246.77 794.361 1247.45 794.197 1247.58 793.641C1247.65 793.367 1247.55 793.089 1247.44 792.833C1245.89 789.422 1241.1 788.847 1238.91 785.811C1236.91 783.019 1238.13 778.502 1241.27 777.126C1242.14 776.745 1243.26 776.387 1243.38 775.445C1243.43 775.034 1243.25 774.629 1243.07 774.253C1242.32 772.714 1241.42 771.242 1240.42 769.857C1239.62 768.759 1238.74 767.681 1238.38 766.374C1238.02 765.068 1238.36 763.442 1239.54 762.796C1240.83 762.091 1242.57 762.805 1243.86 762.078C1244.54 761.702 1244.97 760.983 1245.2 760.247C1245.87 758.083 1245.07 755.781 1244.52 753.581C1243.99 751.38 1243.81 748.764 1245.38 747.145C1246.62 745.867 1248.55 745.642 1250.33 745.493C1249.21 743.516 1248.73 740.933 1248.72 738.664C1248.71 737.65 1248.98 736.423 1249.93 736.103C1251.23 735.668 1252.59 737.302 1253.85 736.782C1254.45 736.527 1254.78 735.829 1254.79 735.164C1254.79 734.5 1254.55 733.865 1254.3 733.252C1253.82 732.026 1253.34 730.799 1252.85 729.573C1252.48 728.647 1252.11 727.691 1252.15 726.689C1252.18 725.695 1252.73 724.648 1253.68 724.351C1254.42 724.116 1255.22 724.39 1255.99 724.519C1256.75 724.648 1257.69 724.542 1258.08 723.854C1258.4 723.266 1258.16 722.528 1257.84 721.935C1256.98 720.403 1255.54 719.19 1254.98 717.523C1254.79 716.951 1254.83 716.124 1255.42 715.972C1255.62 715.923 1255.82 715.97 1256.02 716.016C1256.93 716.239 1257.85 716.469 1258.77 716.691C1259.14 715.823 1258.97 714.797 1258.55 713.954C1258.12 713.111 1257.46 712.413 1256.81 711.722C1255.56 710.403 1254.32 709.083 1253.06 707.765C1252.75 707.433 1252.43 707.087 1252.3 706.65C1252.17 706.212 1252.32 705.657 1252.73 705.471C1252.97 705.362 1253.24 705.397 1253.5 705.426C1254.43 705.545 1255.37 705.671 1256.3 705.791C1255.36 704.242 1253.9 702.797 1252.51 701.639C1250.69 700.135 1248.87 698.624 1247.05 697.12C1246.33 696.521 1245.59 695.908 1245.09 695.106C1244.59 694.304 1244.36 693.274 1244.72 692.406C1245.09 691.537 1246.18 690.969 1247.03 691.371C1247.32 691.514 1247.64 691.757 1247.94 691.616C1248.42 691.383 1248.04 690.661 1247.64 690.305C1245.88 688.747 1244.23 687.05 1242.72 685.236C1242.14 684.541 1241.55 683.613 1241.93 682.802C1242.22 682.201 1242.93 681.939 1243.59 681.9C1244.25 681.861 1244.91 681.974 1245.57 681.863C1245.7 681.84 1245.85 681.802 1245.93 681.687C1246.09 681.473 1245.93 681.177 1245.77 680.96C1244.4 679.144 1243.01 677.279 1242.36 675.092C1242.24 674.648 1242.14 674.172 1242.22 673.714C1242.32 673.256 1242.64 672.821 1243.09 672.728C1244.05 672.533 1244.82 673.858 1245.78 673.67C1246.28 673.575 1246.61 673.08 1246.71 672.586C1246.81 672.091 1246.73 671.577 1246.71 671.075C1246.62 669.614 1246.96 668.134 1247.67 666.859C1248.04 666.187 1248.61 665.526 1249.37 665.48C1250.1 665.436 1250.76 666.025 1251.04 666.701C1251.33 667.384 1251.35 668.142 1251.37 668.885C1251.41 670.116 1251.51 671.336 1251.68 672.559C1251.72 672.798 1251.76 673.065 1251.95 673.222C1252.28 673.515 1252.8 673.273 1253.13 672.968C1253.46 672.671 1253.83 672.292 1254.26 672.346C1254.98 672.435 1255.06 673.452 1254.87 674.149C1254.05 677.19 1251.92 679.995 1252.26 683.127C1252.29 683.439 1252.43 683.817 1252.74 683.835C1252.86 683.843 1252.97 683.792 1253.07 683.728C1253.71 683.34 1254.03 682.59 1254.55 682.049C1255.07 681.507 1256.09 681.257 1256.49 681.889C1258.27 684.651 1255.29 688.463 1255.87 691.704C1255.92 692.029 1256.01 692.367 1256.23 692.609C1256.79 693.211 1257.82 692.894 1258.36 692.285C1258.9 691.677 1259.15 690.859 1259.66 690.223C1260.17 689.587 1261.16 689.178 1261.77 689.703C1262.22 690.071 1262.26 690.725 1262.26 691.301C1262.26 693.089 1262.09 694.879 1261.76 696.636C1261.47 698.2 1261.05 699.816 1261.45 701.353C1261.59 701.849 1262 702.422 1262.48 702.241C1262.7 702.162 1262.82 701.943 1262.96 701.759C1263.62 700.859 1264.94 700.336 1265.87 700.944C1266.66 701.466 1266.84 702.55 1266.84 703.498C1266.82 705.688 1266.2 707.82 1265.63 709.934C1265.5 710.423 1265.4 711.035 1265.78 711.37C1266.31 711.82 1267.07 711.285 1267.76 711.222C1268.54 711.154 1269.3 711.853 1269.31 712.64C1269.3 714.99 1267.51 716.776 1266.35 718.815C1265.87 719.639 1265.53 720.805 1266.23 721.434C1266.71 721.858 1267.48 721.827 1267.94 722.266C1268.49 722.795 1268.34 723.724 1267.98 724.395C1267.07 726.069 1265.25 727.002 1263.93 728.358C1263.45 728.846 1263.08 729.766 1263.66 730.118C1263.9 730.257 1264.19 730.225 1264.46 730.18C1265.37 730.023 1266.41 729.786 1267.12 730.378C1267.81 730.95 1267.8 732.016 1267.58 732.89C1267.17 734.542 1266.21 736.051 1264.9 737.122C1263.42 738.334 1261.42 739.103 1260.63 740.85C1260.47 741.188 1260.37 741.573 1260.47 741.932C1260.75 743.09 1262.51 743.058 1263.24 744.007C1263.71 744.628 1263.61 745.547 1263.2 746.213C1262.79 746.88 1262.13 747.342 1261.49 747.796C1260.43 748.538 1259.38 749.287 1258.32 750.029C1257.83 750.379 1257.32 750.738 1256.97 751.233C1256.62 751.728 1256.45 752.402 1256.7 752.957C1257 753.639 1257.78 753.936 1258.39 754.359C1259 754.79 1259.47 755.71 1258.94 756.238C1257.99 757.193 1256.93 758.226 1255.86 759.063C1254.06 760.469 1252.69 762.42 1251.95 764.594C1251.65 765.51 1251.44 766.507 1251.66 767.45C1251.88 768.393 1252.58 769.278 1253.53 769.447C1254.06 769.547 1254.6 769.42 1255.14 769.431C1255.68 769.443 1256.28 769.655 1256.48 770.162C1256.58 770.426 1256.55 770.719 1256.5 770.992C1256.22 772.395 1255.32 773.58 1254.46 774.726C1253.6 775.865 1252.73 777.084 1252.51 778.498C1252.3 779.912 1252.98 781.578 1254.35 781.971C1255.46 782.292 1256.78 781.753 1257.71 782.42C1258.51 782.978 1258.61 784.125 1258.46 785.082C1258.05 787.887 1256.23 790.586 1256.87 793.35C1257.01 793.991 1257.31 794.622 1257.84 795.014C1258.76 795.711 1260.05 795.459 1261.18 795.683C1262.35 795.92 1263.39 796.712 1263.93 797.781C1264.65 799.198 1264.46 800.88 1264.55 802.465C1264.65 804.05 1265.25 805.853 1266.74 806.37C1268.39 806.943 1270.12 805.242 1271.59 806.168C1272.56 806.774 1272.77 808.061 1272.96 809.18C1273.12 810.156 1273.35 811.12 1273.64 812.066C1273.79 812.568 1273.97 813.09 1274.36 813.431C1275.53 814.456 1277.43 813.219 1278.88 813.782C1279.96 814.206 1280.42 815.477 1280.75 816.596C1281.3 818.483 1281.83 820.655 1282.38 822.541L1282.38 822.57Z" fill="#075A5A"/>
<path d="M694.981 1059.08C698.607 1060.23 702.364 1061.4 706.145 1060.99C709.926 1060.59 713.766 1058.16 714.598 1054.46C714.729 1053.88 714.789 1053.26 715.122 1052.77C715.585 1052.09 716.465 1051.84 717.285 1051.76C720.091 1051.44 722.921 1052.4 725.739 1052.22C728.557 1052.03 731.696 1049.88 731.232 1047.09C730.899 1045.13 728.902 1043.16 730.019 1041.52C730.53 1040.76 731.517 1040.52 732.409 1040.33C735.084 1039.76 737.747 1039.19 740.423 1038.62C743.157 1038.04 746.451 1036.87 746.795 1034.1C747.188 1030.92 743.431 1029.1 741.065 1026.93C744.536 1022.11 753.382 1022.44 755.059 1016.74C755.855 1014.05 754.179 1010.86 751.504 1009.98C750.612 1009.69 749.482 1009.48 749.209 1008.59C749.066 1008.15 749.209 1007.69 749.364 1007.26C751.563 1001.56 759.363 1000.16 762.656 994.999C765.676 990.259 763.227 983.022 757.948 981.086C756.485 980.551 754.607 980.076 754.322 978.555C754.203 977.889 754.452 977.212 754.714 976.582C755.796 974.004 757.116 971.52 758.626 969.168C759.826 967.302 761.17 965.461 761.634 963.298C762.097 961.136 761.384 958.522 759.386 957.583C757.187 956.561 754.417 957.892 752.217 956.834C751.076 956.288 750.303 955.159 749.851 953.983C748.543 950.525 749.625 946.699 750.303 943.063C750.969 939.427 751.004 935.149 748.27 932.666C746.106 930.706 742.919 930.527 739.995 930.456C741.635 927.129 742.17 922.875 741.968 919.18C741.873 917.528 741.314 915.556 739.721 915.128C737.557 914.546 735.488 917.338 733.372 916.613C732.35 916.257 731.755 915.152 731.672 914.071C731.601 912.989 731.933 911.932 732.278 910.91C732.956 908.866 733.622 906.823 734.299 904.779C734.811 903.234 735.322 901.642 735.167 900.014C735.013 898.398 734.014 896.747 732.433 896.355C731.184 896.046 729.912 896.568 728.664 896.854C727.415 897.139 725.87 897.056 725.168 895.974C724.574 895.048 724.895 893.824 725.37 892.826C726.631 890.247 728.866 888.132 729.627 885.364C729.888 884.413 729.734 883.07 728.759 882.88C728.426 882.821 728.093 882.916 727.772 883.011C726.298 883.463 724.823 883.926 723.337 884.377C722.648 882.999 722.814 881.312 723.432 879.898C724.051 878.484 725.061 877.284 726.06 876.096C727.974 873.826 729.888 871.557 731.815 869.287C732.29 868.717 732.789 868.123 732.956 867.398C733.122 866.673 732.837 865.782 732.136 865.521C731.731 865.366 731.291 865.449 730.875 865.521C729.353 865.806 727.832 866.103 726.31 866.388C727.701 863.774 729.96 861.279 732.124 859.259C734.965 856.633 737.807 853.995 740.637 851.369C741.766 850.323 742.919 849.254 743.657 847.9C744.394 846.545 744.667 844.846 743.989 843.468C743.3 842.089 741.469 841.269 740.113 842.006C739.638 842.267 739.139 842.695 738.639 842.493C737.831 842.16 738.378 840.949 738.996 840.331C741.742 837.622 744.275 834.699 746.581 831.597C747.461 830.409 748.341 828.841 747.628 827.557C747.105 826.607 745.904 826.25 744.822 826.25C743.74 826.25 742.658 826.5 741.576 826.381C741.35 826.357 741.112 826.31 740.958 826.132C740.672 825.799 740.91 825.3 741.148 824.931C743.217 821.842 745.321 818.67 746.165 815.046C746.332 814.309 746.451 813.525 746.26 812.788C746.058 812.051 745.488 811.374 744.739 811.267C743.157 811.041 742.016 813.275 740.423 813.061C739.602 812.954 739.008 812.182 738.794 811.386C738.58 810.59 738.663 809.746 738.651 808.926C738.651 806.538 737.95 804.162 736.666 802.154C735.988 801.096 734.989 800.074 733.741 800.074C732.528 800.074 731.517 801.096 731.113 802.225C730.709 803.366 730.756 804.601 730.792 805.813C730.84 807.821 730.792 809.818 730.637 811.826C730.602 812.218 730.554 812.657 730.269 812.931C729.746 813.442 728.866 813.097 728.295 812.634C727.725 812.182 727.094 811.6 726.381 811.731C725.216 811.944 725.18 813.608 725.561 814.725C727.201 819.596 730.97 823.957 730.721 829.09C730.697 829.601 730.507 830.231 730.007 830.29C729.817 830.314 729.627 830.243 729.449 830.148C728.367 829.577 727.76 828.389 726.857 827.557C725.953 826.726 724.265 826.417 723.658 827.486C721.019 832.156 726.274 838.073 725.644 843.408C725.584 843.943 725.477 844.501 725.133 844.917C724.288 845.951 722.553 845.535 721.613 844.596C720.674 843.658 720.175 842.351 719.283 841.364C718.391 840.378 716.727 839.808 715.764 840.723C715.074 841.364 715.062 842.434 715.122 843.372C715.3 846.284 715.752 849.183 716.465 852.011C717.095 854.53 717.939 857.12 717.428 859.663C717.262 860.483 716.632 861.457 715.835 861.207C715.466 861.1 715.24 860.756 714.991 860.471C713.826 859.069 711.614 858.344 710.152 859.425C708.903 860.352 708.713 862.134 708.808 863.679C709.046 867.244 710.283 870.654 711.424 874.04C711.685 874.824 711.911 875.81 711.317 876.393C710.497 877.177 709.189 876.381 708.047 876.345C706.763 876.31 705.586 877.521 705.657 878.805C705.895 882.631 709.01 885.364 711.115 888.572C711.971 889.867 712.649 891.732 711.555 892.826C710.818 893.562 709.557 893.586 708.844 894.347C707.988 895.261 708.321 896.759 708.987 897.816C710.639 900.454 713.707 901.797 716.013 903.876C716.846 904.624 717.547 906.086 716.62 906.716C716.251 906.965 715.764 906.941 715.324 906.894C713.814 906.728 712.078 906.442 710.972 907.476C709.902 908.474 710.021 910.209 710.461 911.611C711.305 914.261 713.017 916.625 715.276 918.241C717.821 920.071 721.173 921.129 722.648 923.897C722.933 924.432 723.135 925.05 723.016 925.644C722.66 927.557 719.77 927.676 718.677 929.292C717.963 930.349 718.225 931.834 718.962 932.88C719.699 933.926 720.817 934.615 721.911 935.292C723.718 936.397 725.525 937.514 727.332 938.619C728.176 939.142 729.044 939.677 729.663 940.449C730.281 941.221 730.626 942.303 730.281 943.229C729.853 944.37 728.604 944.928 727.641 945.677C726.69 946.437 726.001 947.982 726.916 948.79C728.581 950.252 730.412 951.832 732.243 953.091C735.334 955.206 737.783 958.248 739.198 961.718C739.792 963.179 740.22 964.783 739.959 966.34C739.697 967.896 738.627 969.405 737.082 969.774C736.226 969.988 735.322 969.833 734.442 969.905C733.562 969.976 732.599 970.38 732.326 971.223C732.183 971.663 732.266 972.138 732.373 972.578C732.968 974.836 734.561 976.677 736.083 978.46C737.605 980.23 739.15 982.131 739.638 984.413C740.125 986.694 739.174 989.474 736.963 990.247C735.179 990.876 732.968 990.128 731.494 991.304C730.245 992.29 730.198 994.168 730.53 995.712C731.482 1000.24 734.728 1004.46 733.955 1009.02C733.776 1010.08 733.348 1011.14 732.528 1011.82C731.077 1013.05 728.937 1012.76 727.106 1013.24C725.216 1013.74 723.587 1015.13 722.802 1016.92C721.768 1019.3 722.243 1022.02 722.243 1024.61C722.243 1027.2 721.423 1030.19 719.033 1031.18C716.394 1032.27 713.386 1029.67 711.055 1031.32C709.533 1032.4 709.319 1034.52 709.117 1036.36C708.939 1037.97 708.654 1039.56 708.285 1041.13C708.083 1041.96 707.845 1042.82 707.227 1043.42C705.42 1045.2 702.174 1043.37 699.855 1044.43C698.119 1045.22 697.489 1047.34 697.061 1049.19C696.348 1052.32 695.694 1055.91 694.969 1059.03L694.981 1059.08Z" fill="#075A5A"/>
<path opacity="0.2" fill-rule="evenodd" clip-rule="evenodd" d="M316.799 355.885C308.613 345.823 293.804 345.4 272.408 354.566C277.398 362.074 279.901 365.828 279.901 365.828C272.976 364.61 269.496 364.002 269.496 364.002C268.413 366.91 268.591 370.123 270.011 372.897C271.432 375.67 273.953 377.801 277.025 378.798C277.025 378.798 278.694 377.091 282.05 373.675C282.671 383.483 285.743 386.882 291.265 383.905C310.034 376.059 319.995 368.889 321.149 362.395C325.357 359.825 323.901 357.643 316.781 355.868L316.799 355.885Z" fill="#075A5A"/>
<path opacity="0.2" fill-rule="evenodd" clip-rule="evenodd" d="M387.512 474.379C376.645 466.969 362.329 470.601 344.582 485.215C351.619 491.049 355.146 493.964 355.146 493.964C348.145 494.685 344.627 495.05 344.627 495.05C344.463 498.132 345.599 501.162 347.794 503.433C349.988 505.703 353.044 507.057 356.287 507.176C356.287 507.176 357.373 505.084 359.562 500.896C363.105 510.125 367.07 512.545 371.467 508.188C387.092 495.554 394.482 485.968 393.636 479.432C396.896 475.822 394.846 474.128 387.49 474.368L387.512 474.379Z" fill="#075A5A"/>
<g opacity="0.2">
<path d="M1388.4 424.274C1384.69 424.274 1381.69 421.411 1381.69 417.878C1381.69 414.346 1384.69 411.482 1388.4 411.482C1392.11 411.482 1395.12 414.346 1395.12 417.878C1395.12 421.411 1392.11 424.274 1388.4 424.274Z" fill="#075A5A"/>
<path d="M1381.98 424.109C1383.86 424.109 1385.4 425.558 1385.4 427.36C1385.4 429.163 1383.88 430.611 1381.98 430.611C1380.09 430.611 1378.57 429.163 1378.57 427.36C1378.57 425.558 1380.09 424.109 1381.98 424.109Z" fill="#075A5A"/>
<path d="M1394.92 401C1402.02 401 1408.47 403.744 1413.12 408.173C1417.77 412.602 1420.65 418.739 1420.65 425.5C1420.65 432.261 1417.77 438.398 1413.12 442.827C1408.47 447.256 1402.02 450 1394.92 450C1387.82 450 1381.38 447.256 1376.73 442.827C1372.08 438.398 1369.2 432.261 1369.2 425.5C1369.2 418.739 1372.08 412.602 1376.73 408.173C1381.38 403.744 1387.82 401 1394.92 401ZM1379.4 440.294C1383.37 444.075 1388.86 446.419 1394.92 446.419C1400.98 446.419 1406.47 444.075 1410.44 440.294C1414.42 436.513 1416.88 431.283 1416.88 425.512C1416.88 419.74 1414.42 414.51 1410.44 410.729C1406.47 406.948 1400.98 404.604 1394.92 404.604C1388.86 404.604 1383.37 406.948 1379.4 410.729C1375.43 414.51 1372.97 419.74 1372.97 425.512C1372.97 431.283 1375.43 436.513 1379.4 440.294Z" fill="#075A5A"/>
<path d="M1380.56 321.776C1378.37 321.776 1376.59 320.081 1376.59 317.99C1376.59 315.9 1378.37 314.205 1380.56 314.205C1382.76 314.205 1384.54 315.9 1384.54 317.99C1384.54 320.081 1382.76 321.776 1380.56 321.776Z" fill="#075A5A"/>
<path d="M1376.77 321.678C1377.88 321.678 1378.79 322.535 1378.79 323.602C1378.79 324.668 1377.89 325.526 1376.77 325.526C1375.65 325.526 1374.75 324.668 1374.75 323.602C1374.75 322.535 1375.65 321.678 1376.77 321.678Z" fill="#075A5A"/>
<path d="M1384.42 308C1388.62 308 1392.44 309.624 1395.19 312.245C1397.94 314.867 1399.65 318.499 1399.65 322.5C1399.65 326.502 1397.94 330.134 1395.19 332.755C1392.44 335.376 1388.62 337 1384.42 337C1380.22 337 1376.41 335.376 1373.66 332.755C1370.9 330.134 1369.2 326.502 1369.2 322.5C1369.2 318.499 1370.9 314.867 1373.66 312.245C1376.41 309.624 1380.22 308 1384.42 308ZM1375.24 331.256C1377.59 333.494 1380.84 334.881 1384.42 334.881C1388.01 334.881 1391.26 333.494 1393.61 331.256C1395.96 329.018 1397.42 325.923 1397.42 322.507C1397.42 319.091 1395.96 315.996 1393.61 313.758C1391.26 311.52 1388.01 310.133 1384.42 310.133C1380.84 310.133 1377.59 311.52 1375.24 313.758C1372.89 315.996 1371.43 319.091 1371.43 322.507C1371.43 325.923 1372.89 329.018 1375.24 331.256Z" fill="#075A5A"/>
<path d="M1314.7 286.025C1313.26 286.025 1312.1 284.914 1312.1 283.545C1312.1 282.175 1313.26 281.064 1314.7 281.064C1316.14 281.064 1317.3 282.175 1317.3 283.545C1317.3 284.914 1316.14 286.025 1314.7 286.025Z" fill="#075A5A"/>
<path d="M1312.21 285.961C1312.94 285.961 1313.53 286.523 1313.53 287.222C1313.53 287.92 1312.94 288.482 1312.21 288.482C1311.47 288.482 1310.88 287.92 1310.88 287.222C1310.88 286.523 1311.47 285.961 1312.21 285.961Z" fill="#075A5A"/>
<path d="M1317.23 277C1319.98 277 1322.48 278.064 1324.28 279.781C1326.09 281.499 1327.2 283.878 1327.2 286.5C1327.2 289.122 1326.09 291.501 1324.28 293.218C1322.48 294.936 1319.98 296 1317.23 296C1314.48 296 1311.98 294.936 1310.17 293.218C1308.37 291.501 1307.25 289.122 1307.25 286.5C1307.25 283.878 1308.37 281.499 1310.17 279.781C1311.98 278.064 1314.48 277 1317.23 277ZM1311.21 292.237C1312.75 293.703 1314.88 294.612 1317.23 294.612C1319.58 294.612 1321.71 293.703 1323.25 292.237C1324.79 290.77 1325.74 288.743 1325.74 286.505C1325.74 284.267 1324.79 282.239 1323.25 280.773C1321.71 279.306 1319.58 278.398 1317.23 278.398C1314.88 278.398 1312.75 279.306 1311.21 280.773C1309.67 282.239 1308.72 284.267 1308.72 286.505C1308.72 288.743 1309.67 290.77 1311.21 292.237Z" fill="#075A5A"/>
</g>
<g opacity="0.2">
<path d="M131.997 148.726C135.706 148.726 138.713 151.589 138.713 155.122C138.713 158.654 135.706 161.518 131.997 161.518C128.288 161.518 125.281 158.654 125.281 155.122C125.281 151.589 128.288 148.726 131.997 148.726Z" fill="#075A5A"/>
<path d="M138.414 148.891C136.534 148.891 135 147.442 135 145.64C135 143.837 136.521 142.389 138.414 142.389C140.306 142.389 141.827 143.837 141.827 145.64C141.827 147.442 140.306 148.891 138.414 148.891Z" fill="#075A5A"/>
<path d="M125.475 172C118.376 172 111.932 169.256 107.282 164.827C102.632 160.398 99.75 154.261 99.75 147.5C99.75 140.739 102.632 134.602 107.282 130.173C111.932 125.744 118.376 123 125.475 123C132.574 123 139.018 125.744 143.668 130.173C148.318 134.602 151.2 140.739 151.2 147.5C151.2 154.261 148.318 160.398 143.668 164.827C139.018 169.256 132.574 172 125.475 172ZM140.997 132.706C137.027 128.925 131.535 126.581 125.475 126.581C119.415 126.581 113.924 128.925 109.953 132.706C105.983 136.487 103.522 141.717 103.522 147.488C103.522 153.26 105.983 158.49 109.953 162.271C113.924 166.052 119.415 168.396 125.475 168.396C131.535 168.396 137.027 166.052 140.997 162.271C144.967 158.49 147.428 153.26 147.428 147.488C147.428 141.717 144.967 136.487 140.997 132.706Z" fill="#075A5A"/>
<path d="M139.834 251.224C142.029 251.224 143.809 252.919 143.809 255.01C143.809 257.1 142.029 258.795 139.834 258.795C137.639 258.795 135.859 257.1 135.859 255.01C135.859 252.919 137.639 251.224 139.834 251.224Z" fill="#075A5A"/>
<path d="M143.63 251.322C142.517 251.322 141.609 250.465 141.609 249.398C141.609 248.332 142.51 247.474 143.63 247.474C144.75 247.474 145.65 248.332 145.65 249.398C145.65 250.465 144.75 251.322 143.63 251.322Z" fill="#075A5A"/>
<path d="M135.975 265C131.774 265 127.96 263.376 125.208 260.755C122.456 258.133 120.75 254.501 120.75 250.5C120.75 246.498 122.456 242.866 125.208 240.245C127.96 237.624 131.774 236 135.975 236C140.177 236 143.99 237.624 146.742 240.245C149.495 242.866 151.2 246.498 151.2 250.5C151.2 254.501 149.495 258.133 146.742 260.755C143.99 263.376 140.177 265 135.975 265ZM145.161 241.744C142.812 239.506 139.562 238.119 135.975 238.119C132.388 238.119 129.138 239.506 126.789 241.744C124.439 243.982 122.983 247.077 122.983 250.493C122.983 253.909 124.439 257.004 126.789 259.242C129.138 261.48 132.388 262.867 135.975 262.867C139.562 262.867 142.812 261.48 145.161 259.242C147.511 257.004 148.968 253.909 148.968 250.493C148.968 247.077 147.511 243.982 145.161 241.744Z" fill="#075A5A"/>
<path d="M205.698 286.975C207.136 286.975 208.302 288.086 208.302 289.455C208.302 290.825 207.136 291.936 205.698 291.936C204.26 291.936 203.094 290.825 203.094 289.455C203.094 288.086 204.26 286.975 205.698 286.975Z" fill="#075A5A"/>
<path d="M208.191 287.039C207.462 287.039 206.867 286.477 206.867 285.778C206.867 285.08 207.457 284.518 208.191 284.518C208.925 284.518 209.514 285.08 209.514 285.778C209.514 286.477 208.925 287.039 208.191 287.039Z" fill="#075A5A"/>
<path d="M203.17 296C200.418 296 197.919 294.936 196.116 293.219C194.313 291.501 193.195 289.122 193.195 286.5C193.195 283.878 194.313 281.499 196.116 279.782C197.919 278.064 200.418 277 203.17 277C205.923 277 208.422 278.064 210.225 279.782C212.028 281.499 213.145 283.878 213.145 286.5C213.145 289.122 212.028 291.501 210.225 293.219C208.422 294.936 205.923 296 203.17 296ZM209.189 280.763C207.649 279.297 205.52 278.388 203.17 278.388C200.82 278.388 198.691 279.297 197.152 280.763C195.612 282.23 194.658 284.257 194.658 286.495C194.658 288.733 195.612 290.761 197.152 292.227C198.691 293.694 200.82 294.602 203.17 294.602C205.52 294.602 207.649 293.694 209.189 292.227C210.728 290.761 211.683 288.733 211.683 286.495C211.683 284.257 210.728 282.23 209.189 280.763Z" fill="#075A5A"/>
</g>
<path d="M630.827 725.269L726.716 779.766C730.092 781.685 734.292 781.701 737.688 779.803L833.924 726.008C839.111 723.109 840.873 716.683 837.752 711.704L742.343 559.513C738.165 552.848 728.083 552.797 723.837 559.448L627.121 710.936C623.951 715.901 625.67 722.338 630.827 725.269ZM647.64 774.483L723.011 876.411C727.298 882.208 736.276 882.25 740.62 876.47L816.81 775.095C820.245 770.526 819.149 765.301 816.004 762.018C812.87 758.747 807.602 757.278 802.592 760.071L736.254 797.064C733.715 798.479 730.557 798.469 728.025 797.032L661.987 759.557C657.006 756.73 651.724 758.156 648.557 761.41C645.378 764.678 644.248 769.895 647.64 774.483Z" stroke="#075A5A" stroke-width="2.77928"/>
<mask id="mask0_2076_3704" style="mask-type:alpha" maskUnits="userSpaceOnUse" x="626" y="555" width="212" height="325">
<path d="M737.013 778.593C734.044 780.253 730.362 780.24 727.406 778.56L631.517 724.062C627.018 721.505 625.57 715.946 628.292 711.682L725.008 560.194C728.699 554.413 737.522 554.447 741.164 560.256L836.573 712.447C839.258 716.729 837.766 722.274 833.25 724.798L737.013 778.593Z" fill="#D9D9D9"/>
<path d="M739.51 875.641C735.73 880.67 727.869 880.641 724.13 875.584L648.759 773.656C642.898 765.73 652.554 755.806 661.297 760.768L727.335 798.243C730.287 799.919 733.962 799.932 736.928 798.278L803.266 761.286C812.049 756.388 821.624 766.383 815.7 774.265L739.51 875.641Z" fill="#D9D9D9"/>
</mask>
<g mask="url(#mask0_2076_3704)">
<g filter="url(#filter0_di_2076_3704)">
<path d="M1033.67 1234.47C852.112 1245.3 612.175 1069.31 598.726 881.488C585.278 693.666 665.746 493.575 847.306 482.742C1028.86 471.91 1305.55 572.164 1319 759.985C1332.45 947.807 1215.23 1223.63 1033.67 1234.47Z" fill="url(#paint0_linear_2076_3704)"/>
<mask id="mask1_2076_3704" style="mask-type:alpha" maskUnits="userSpaceOnUse" x="597" y="481" width="724" height="754">
<path d="M1033.67 1234.47C852.112 1245.3 612.175 1069.31 598.726 881.488C585.278 693.666 665.746 493.575 847.306 482.742C1028.86 471.91 1305.55 572.164 1319 759.985C1332.45 947.807 1215.23 1223.63 1033.67 1234.47Z" fill="url(#paint1_linear_2076_3704)"/>
</mask>
<g mask="url(#mask1_2076_3704)">
<path d="M570.193 1195.63L694.374 1132.65C739.708 1109.66 746.037 1047.8 706.339 1015.68L585.757 918.144C561.59 898.595 565.433 860.938 593.027 846.929L707.443 788.846C752.805 765.818 759.072 703.878 719.282 671.81L604.467 579.276C592.725 569.813 586.144 555.416 586.718 540.454L586.856 536.859C587.301 525.267 574.99 517.452 564.648 522.737L439.797 586.555C394.433 609.742 388.404 671.826 428.421 703.734L548.969 799.856C573.322 819.274 569.674 857.049 542.079 871.189L426.378 930.471C381.082 953.679 375.07 1015.68 415.023 1047.59L530.224 1139.58C542.068 1149.04 548.719 1163.5 548.142 1178.54L548.029 1181.48C547.585 1193.06 559.854 1200.87 570.193 1195.63ZM840.907 1098.88L965.088 1035.91C1010.42 1012.92 1016.75 951.052 977.052 918.939L856.471 821.4C832.304 801.851 836.147 764.194 863.741 750.185L978.157 692.102C1023.52 669.074 1029.79 607.135 989.996 575.066L875.181 482.532C863.439 473.069 856.858 458.672 857.432 443.71L857.57 440.115C858.015 428.523 845.704 420.708 835.362 425.994L710.511 489.811C665.146 512.998 659.118 575.082 699.135 606.99L819.683 703.112C844.036 722.531 840.388 760.305 812.792 774.445L697.092 833.727C651.796 856.935 645.783 918.939 685.737 950.844L800.938 1042.84C812.782 1052.29 819.433 1066.75 818.856 1081.79L818.742 1084.74C818.299 1096.31 830.568 1104.13 840.907 1098.88Z" fill="#075A5A" stroke="url(#paint2_linear_2076_3704)" stroke-width="1.38964"/>
<path fill-rule="evenodd" clip-rule="evenodd" d="M401.961 824.316C417.157 831.337 427.67 845.646 429.758 862.153C446.953 848.8 470.562 846.95 489.78 857.451C509.007 867.952 520.151 888.795 518.128 910.44C532.081 897.789 552.121 894.219 569.732 901.246C587.342 908.273 599.416 924.657 600.828 943.434C620.837 930.196 646.609 928.984 667.926 940.28C689.242 951.583 702.665 973.563 702.867 997.521C712.64 990.248 725.301 987.96 737.086 991.337C748.863 994.713 758.417 1003.36 762.893 1014.71C774.624 997.933 795.608 990.173 815.61 995.206C835.612 1000.24 850.472 1017.02 852.951 1037.37C870.888 1019.84 897.219 1013.75 921.236 1021.59C945.252 1029.43 962.941 1049.89 967.118 1074.65C987.953 1058.11 1016.57 1055.02 1040.65 1066.7C1064.72 1078.39 1079.97 1102.75 1079.83 1129.33C1090.26 1106.14 1115.37 1093.17 1140.54 1097.98C1165.72 1102.79 1184.4 1124.12 1185.69 1149.55C1192.92 1135.51 1208.29 1127.58 1224.06 1129.74C1239.82 1131.9 1252.56 1143.7 1255.86 1159.18C1263.55 1149.34 1275.73 1144.05 1288.26 1145.09C1300.79 1146.13 1311.99 1153.38 1318.04 1164.37C1322.74 1157.08 1331.14 1153.03 1339.84 1153.84C1348.53 1154.66 1356.08 1160.21 1359.42 1168.24C1366.46 1157.24 1379.4 1151.45 1392.39 1153.48C1405.39 1155.5 1416.01 1164.97 1419.46 1177.59L1094.85 1163.36C652.954 1078.6 406.015 975.944 354.039 855.405L355.112 827.639C369.054 818.541 386.783 817.278 401.978 824.3L401.961 824.316Z" fill="#2BB386"/>
<path fill-rule="evenodd" clip-rule="evenodd" d="M386.731 853.74C397.251 858.717 404.551 868.629 406.145 880.08C422.799 872.004 442.634 873.752 457.706 884.623C472.778 895.494 480.632 913.709 478.134 931.988C492.809 920.69 512.954 919.391 529.097 928.695C545.239 937.999 554.169 956.052 551.685 974.374C569.059 954.865 596.898 948.275 621.403 957.862C645.907 967.458 661.879 991.196 661.392 1017.32C670.589 1010.15 682.728 1007.86 693.977 1011.18C705.226 1014.49 714.204 1023 718.07 1034.02C730.292 1021.31 748.923 1016.96 765.658 1022.92C782.393 1028.86 794.111 1043.99 795.595 1061.57C807.26 1046.92 826.193 1040 844.709 1043.62C863.218 1047.23 878.22 1060.78 883.618 1078.76C902.38 1059.89 930.385 1053.38 955.761 1062C981.136 1070.61 999.413 1092.84 1002.85 1119.24C1010.22 1112.91 1019.98 1110.07 1029.65 1111.44C1039.31 1112.81 1047.94 1118.25 1053.32 1126.37C1066.61 1110.53 1087.92 1103.75 1108.09 1108.97C1128.25 1114.18 1143.66 1130.45 1147.67 1150.77C1157.16 1138.29 1172.69 1131.87 1188.34 1133.96C1204 1136.05 1217.36 1146.32 1223.35 1160.87C1232.13 1154.23 1243.34 1151.6 1254.21 1153.63C1265.09 1155.65 1274.63 1162.15 1280.48 1171.51L1064.4 1162.04C691.522 1126.11 454.122 1039.88 352.188 903.37L354.041 855.418C363.925 849.395 376.227 848.764 386.748 853.741L386.731 853.74Z" fill="#1F9970"/>
<path fill-rule="evenodd" clip-rule="evenodd" d="M580.217 934.34C578.284 930.785 576.002 927.139 573.502 923.225C565.544 910.742 559.701 897.533 577.046 869.192C587.097 852.774 597.172 837.478 576.847 815.982C627.266 857.697 563.315 872.621 591.635 916.97C600.871 931.432 613.565 946.565 608.015 973.256C603.952 992.822 590.383 1009.46 571.221 1018.41C558.886 1007.05 552.718 1001.37 552.718 1001.37C581.078 990.682 594.439 960.461 580.226 934.341L580.217 934.34Z" fill="#0A4F38"/>
<path fill-rule="evenodd" clip-rule="evenodd" d="M407.908 887.906C424.802 898.456 434.201 917.641 432.095 937.301C446.556 934.372 461.625 937.684 473.575 946.403C485.515 955.121 493.214 968.437 494.761 983.055C512.238 969.806 536.151 968.589 555.04 979.97C573.93 991.36 583.957 1013.03 580.312 1034.61C590.889 1024.62 605.986 1020.9 620.098 1024.83C634.21 1028.75 645.265 1039.72 649.216 1053.75C662.164 1035.54 685.01 1027.08 706.886 1032.38C728.763 1037.68 745.269 1055.66 748.553 1077.8C760.321 1067.26 776.749 1063.52 792.03 1067.9C807.311 1072.29 819.289 1084.18 823.718 1099.36C840.249 1083.57 864.292 1078.31 886.089 1085.68C907.885 1093.06 923.804 1111.86 927.391 1134.45C937.087 1123.96 951.607 1119.27 965.721 1122.07C979.834 1124.87 991.502 1134.76 996.538 1148.18C1009.35 1132.38 1029.68 1124.6 1049.92 1127.73C1070.17 1130.86 1087.26 1144.43 1094.84 1163.38L887.175 1154.28C607.117 1117.08 428.037 1052.77 349.934 961.344L352.316 899.701L352.776 887.788C369.599 877.32 391.022 877.373 407.924 887.915L407.908 887.906Z" fill="#0D805A"/>
<path fill-rule="evenodd" clip-rule="evenodd" d="M744.486 771.977C747.148 771.692 749.044 774.024 748.721 777.171C748.397 780.318 745.984 783.106 743.322 783.382C740.66 783.667 738.764 781.334 739.088 778.187C739.412 775.04 741.825 772.253 744.486 771.977Z" fill="#2B9C76"/>
<path fill-rule="evenodd" clip-rule="evenodd" d="M752.137 766.418C753.7 766.253 754.816 767.623 754.627 769.471C754.438 771.319 753.02 772.954 751.457 773.12C749.894 773.286 748.777 771.915 748.966 770.067C749.155 768.219 750.573 766.584 752.137 766.418Z" fill="#2B9C76"/>
<path fill-rule="evenodd" clip-rule="evenodd" d="M738.246 784.522C739.809 784.356 740.926 785.726 740.737 787.574C740.547 789.423 739.129 791.058 737.566 791.224C736.003 791.389 734.886 790.019 735.075 788.171C735.265 786.323 736.683 784.687 738.246 784.522Z" fill="#2B9C76"/>
<path fill-rule="evenodd" clip-rule="evenodd" d="M744.988 784.893C746.551 784.727 747.668 786.097 747.479 787.946C747.29 789.794 745.872 791.429 744.308 791.595C742.745 791.76 741.628 790.39 741.818 788.542C742.007 786.694 743.425 785.058 744.988 784.893Z" fill="#2B9C76"/>
<path fill-rule="evenodd" clip-rule="evenodd" d="M752.668 777.897C753.91 777.767 754.794 778.851 754.645 780.317C754.496 781.782 753.369 783.079 752.126 783.217C750.884 783.346 750 782.262 750.15 780.797C750.299 779.332 751.426 778.035 752.668 777.897Z" fill="#2B9C76"/>
<path fill-rule="evenodd" clip-rule="evenodd" d="M732.948 795C734.162 794.727 735.168 795.7 735.186 797.181C735.205 798.653 734.241 800.074 733.027 800.347C731.813 800.62 730.808 799.648 730.789 798.167C730.77 796.694 731.734 795.273 732.948 795Z" fill="#2B9C76"/>
<path fill-rule="evenodd" clip-rule="evenodd" d="M672.27 854.028C666.597 848.7 658.042 849.721 646.608 857.09C650.196 861.167 651.99 863.206 651.99 863.206C647.889 863.081 645.837 863.01 645.837 863.01C645.492 864.855 645.905 866.764 646.983 868.31C648.061 869.856 649.717 870.917 651.58 871.245C651.58 871.245 652.381 870.075 653.982 867.727C655.281 873.562 657.366 875.345 660.264 873.081C670.321 866.732 675.369 861.562 675.406 857.555C677.586 855.644 676.54 854.466 672.277 854.018L672.27 854.028Z" fill="#1C966D"/>
<path fill-rule="evenodd" clip-rule="evenodd" d="M633.021 740.462C629.341 735.325 622.342 734.809 612.044 738.89C614.262 742.7 615.375 744.606 615.375 744.606C612.122 743.861 610.487 743.488 610.487 743.488C609.919 744.902 609.941 746.491 610.561 747.89C611.18 749.289 612.332 750.393 613.766 750.949C613.766 750.949 614.589 750.141 616.242 748.524C616.348 753.379 617.737 755.12 620.406 753.766C629.436 750.281 634.286 746.948 634.955 743.767C636.995 742.585 636.348 741.478 633.013 740.454L633.021 740.462Z" fill="#1C966D"/>
<path fill-rule="evenodd" clip-rule="evenodd" d="M686.512 680.01C685.565 675.991 681.446 673.95 674.165 673.864C674.555 676.717 674.752 678.139 674.752 678.139C672.958 676.883 672.063 676.251 672.063 676.251C671.363 676.967 670.983 677.931 671.003 678.933C671.024 679.935 671.448 680.883 672.184 681.58C672.184 681.58 672.888 681.297 674.29 680.729C673.138 683.691 673.549 685.092 675.503 684.934C681.864 685.066 685.642 684.249 686.851 682.49C688.386 682.277 688.274 681.454 686.504 680.006L686.512 680.01Z" fill="#1C966D"/>
<path d="M677.013 803.094C677.077 801.45 678.472 800.181 680.119 800.254C681.765 800.326 683.058 801.712 682.995 803.357C682.931 805.001 681.536 806.27 679.889 806.198C678.242 806.125 676.95 804.731 677.013 803.094Z" fill="white"/>
<path d="M683.22 795.509C686.387 795.648 689.203 797.051 691.198 799.204C693.193 801.357 694.369 804.26 694.247 807.407C694.126 810.554 692.73 813.345 690.576 815.307C688.421 817.27 685.507 818.43 682.34 818.291C679.173 818.152 676.357 816.749 674.362 814.597C672.367 812.444 671.191 809.54 671.313 806.402C671.434 803.263 672.83 800.464 674.984 798.493C677.139 796.522 680.053 795.37 683.22 795.509ZM675.601 813.463C677.305 815.303 679.708 816.495 682.405 816.613C685.101 816.731 687.588 815.753 689.429 814.07C691.269 812.386 692.455 810.004 692.559 807.325C692.662 804.645 691.664 802.168 689.96 800.328C688.255 798.489 685.852 797.297 683.156 797.179C680.459 797.06 677.972 798.038 676.132 799.722C674.291 801.406 673.105 803.787 673.002 806.467C672.898 809.147 673.896 811.624 675.601 813.463Z" fill="white"/>
<path d="M677.042 806C677.882 806.037 678.536 806.743 678.504 807.578C678.472 808.413 677.765 809.059 676.925 809.022C676.085 808.985 675.43 808.279 675.462 807.444C675.495 806.609 676.201 805.963 677.042 806Z" fill="white"/>
<path d="M716.917 791.821C716.953 790.894 717.738 790.176 718.671 790.217C719.603 790.258 720.33 791.042 720.295 791.969C720.259 792.896 719.473 793.614 718.541 793.574C717.608 793.533 716.881 792.748 716.917 791.821Z" fill="white"/>
<path d="M716.94 793.462C717.41 793.483 717.782 793.884 717.764 794.352C717.746 794.819 717.345 795.186 716.874 795.166C716.403 795.145 716.032 794.744 716.05 794.277C716.068 793.809 716.469 793.442 716.94 793.462Z" fill="white"/>
<path d="M720.415 787.551C722.196 787.629 723.782 788.418 724.904 789.629C726.027 790.841 726.688 792.476 726.619 794.245C726.551 796.015 725.767 797.586 724.554 798.696C723.342 799.805 721.701 800.452 719.92 800.374C718.139 800.296 716.554 799.507 715.431 798.296C714.308 797.084 713.647 795.449 713.716 793.68C713.784 791.91 714.568 790.339 715.781 789.229C716.994 788.12 718.634 787.473 720.415 787.551ZM716.12 797.665C717.081 798.702 718.435 799.372 719.956 799.439C721.477 799.506 722.878 798.957 723.916 798.007C724.954 797.057 725.62 795.715 725.679 794.204C725.737 792.693 725.177 791.297 724.215 790.26C723.254 789.223 721.9 788.553 720.379 788.486C718.859 788.419 717.457 788.968 716.419 789.918C715.381 790.868 714.715 792.21 714.657 793.721C714.598 795.232 715.159 796.628 716.12 797.665Z" fill="white"/>
<path d="M641.729 826.28C641.765 825.353 642.55 824.635 643.483 824.676C644.416 824.717 645.143 825.501 645.107 826.428C645.071 827.355 644.286 828.073 643.353 828.032C642.421 827.992 641.693 827.207 641.729 826.28Z" fill="white"/>
<path d="M645.22 822.01C647.001 822.088 648.586 822.877 649.709 824.088C650.832 825.3 651.493 826.935 651.424 828.704C651.356 830.474 650.571 832.045 649.359 833.155C648.146 834.264 646.505 834.911 644.725 834.833C642.944 834.755 641.358 833.966 640.235 832.755C639.113 831.543 638.452 829.908 638.52 828.139C638.589 826.369 639.373 824.798 640.586 823.688C641.798 822.579 643.439 821.932 645.22 822.01ZM640.925 832.124C641.886 833.161 643.24 833.831 644.761 833.898C646.281 833.965 647.683 833.416 648.721 832.466C649.759 831.516 650.425 830.174 650.483 828.663C650.542 827.152 649.981 825.756 649.02 824.719C648.059 823.682 646.704 823.012 645.184 822.945C643.663 822.878 642.262 823.427 641.224 824.377C640.186 825.327 639.52 826.669 639.461 828.18C639.403 829.691 639.963 831.087 640.925 832.124Z" fill="white"/>
<path d="M641.745 827.918C642.215 827.938 642.587 828.339 642.569 828.807C642.551 829.274 642.149 829.641 641.679 829.621C641.208 829.6 640.836 829.199 640.855 828.732C640.873 828.264 641.274 827.897 641.745 827.918Z" fill="white"/>
<path d="M721.786 762.679C722.084 762.692 722.319 762.946 722.307 763.242C722.296 763.538 722.042 763.77 721.744 763.757C721.447 763.744 721.211 763.49 721.223 763.194C721.234 762.899 721.488 762.666 721.786 762.679Z" fill="white"/>
<path d="M721.774 761.648C721.797 761.062 722.294 760.607 722.884 760.633C723.474 760.659 723.935 761.155 723.912 761.742C723.889 762.329 723.392 762.783 722.802 762.757C722.212 762.731 721.751 762.235 721.774 761.648Z" fill="white"/>
<path d="M723.987 758.944C725.114 758.993 726.117 759.493 726.828 760.259C727.539 761.026 727.957 762.061 727.914 763.181C727.87 764.301 727.374 765.296 726.606 765.998C725.839 766.7 724.8 767.11 723.673 767.06C722.546 767.011 721.542 766.512 720.832 765.745C720.121 764.978 719.703 763.943 719.746 762.823C719.789 761.703 720.286 760.708 721.053 760.006C721.821 759.304 722.859 758.895 723.987 758.944ZM721.268 765.346C721.876 766.002 722.733 766.426 723.696 766.468C724.658 766.511 725.545 766.163 726.202 765.562C726.859 764.961 727.281 764.111 727.318 763.155C727.355 762.199 727 761.315 726.392 760.659C725.783 760.002 724.926 759.578 723.964 759.536C723.001 759.494 722.114 759.841 721.457 760.442C720.8 761.043 720.379 761.893 720.342 762.849C720.305 763.806 720.659 764.689 721.268 765.346Z" fill="white"/>
<path d="M744.396 742.135C744.976 742.161 745.435 742.655 745.413 743.232C745.39 743.809 744.895 744.261 744.315 744.236C743.735 744.211 743.276 743.716 743.299 743.139C743.321 742.563 743.816 742.11 744.396 742.135Z" fill="white"/>
<path d="M744.379 740.125C744.423 738.982 745.392 738.097 746.542 738.147C747.692 738.197 748.589 739.165 748.545 740.308C748.501 741.451 747.532 742.337 746.382 742.287C745.232 742.236 744.335 741.268 744.379 740.125Z" fill="white"/>
<path d="M748.684 734.856C750.88 734.953 752.835 735.925 754.22 737.419C755.605 738.914 756.419 740.929 756.335 743.112C756.251 745.295 755.283 747.233 753.788 748.6C752.292 749.968 750.269 750.767 748.073 750.67C745.876 750.574 743.921 749.601 742.536 748.107C741.151 746.613 740.337 744.597 740.421 742.414C740.505 740.232 741.473 738.294 742.968 736.926C744.464 735.558 746.487 734.76 748.684 734.856ZM743.386 747.33C744.572 748.609 746.242 749.435 748.117 749.517C749.992 749.599 751.721 748.922 753.001 747.751C754.281 746.58 755.103 744.925 755.175 743.061C755.247 741.198 754.556 739.476 753.37 738.197C752.184 736.918 750.514 736.092 748.639 736.009C746.764 735.927 745.036 736.604 743.755 737.775C742.475 738.946 741.653 740.602 741.581 742.465C741.509 744.329 742.201 746.051 743.386 747.33Z" fill="white"/>
<path d="M755.232 712.322C755.508 712.334 755.726 712.569 755.715 712.843C755.704 713.117 755.469 713.332 755.194 713.32C754.918 713.308 754.7 713.073 754.711 712.799C754.721 712.525 754.956 712.31 755.232 712.322Z" fill="white"/>
<path d="M755.232 711.366C755.253 710.823 755.713 710.401 756.26 710.425C756.807 710.449 757.233 710.909 757.212 711.453C757.191 711.996 756.731 712.417 756.184 712.393C755.637 712.369 755.211 711.909 755.232 711.366Z" fill="white"/>
<path d="M757.272 708.863C758.316 708.909 759.246 709.372 759.904 710.082C760.562 710.792 760.95 711.751 760.909 712.788C760.869 713.826 760.409 714.747 759.699 715.397C758.988 716.048 758.026 716.427 756.982 716.381C755.937 716.336 755.008 715.873 754.35 715.163C753.691 714.453 753.304 713.494 753.344 712.457C753.384 711.419 753.844 710.498 754.555 709.847C755.266 709.197 756.228 708.818 757.272 708.863ZM754.754 714.793C755.317 715.401 756.111 715.794 757.003 715.833C757.894 715.872 758.716 715.55 759.324 714.994C759.933 714.437 760.324 713.65 760.358 712.764C760.392 711.878 760.064 711.06 759.5 710.452C758.936 709.843 758.142 709.451 757.251 709.412C756.359 709.373 755.538 709.694 754.929 710.251C754.32 710.808 753.93 711.595 753.896 712.481C753.861 713.367 754.19 714.185 754.754 714.793Z" fill="white"/>
<path d="M733.889 690.151C734.448 690.175 734.889 690.651 734.867 691.206C734.846 691.761 734.369 692.196 733.811 692.172C733.253 692.147 732.812 691.672 732.833 691.117C732.855 690.562 733.331 690.126 733.889 690.151Z" fill="white"/>
<path d="M733.884 688.218C733.926 687.118 734.858 686.266 735.965 686.314C737.071 686.363 737.934 687.294 737.892 688.394C737.849 689.494 736.918 690.346 735.811 690.297C734.704 690.249 733.841 689.318 733.884 688.218Z" fill="white"/>
<path d="M738.016 683.151C740.129 683.243 742.01 684.179 743.343 685.617C744.675 687.055 745.459 688.994 745.378 691.094C745.297 693.194 744.366 695.059 742.927 696.375C741.488 697.691 739.541 698.459 737.428 698.367C735.315 698.274 733.434 697.338 732.101 695.9C730.769 694.463 729.985 692.523 730.066 690.423C730.147 688.323 731.078 686.458 732.517 685.142C733.956 683.826 735.903 683.058 738.016 683.151ZM732.919 695.152C734.06 696.383 735.666 697.178 737.471 697.257C739.275 697.336 740.938 696.685 742.17 695.558C743.402 694.431 744.192 692.838 744.261 691.045C744.331 689.252 743.666 687.596 742.525 686.365C741.384 685.134 739.777 684.339 737.973 684.26C736.169 684.181 734.506 684.833 733.274 685.959C732.042 687.086 731.252 688.679 731.182 690.472C731.113 692.265 731.778 693.921 732.919 695.152Z" fill="white"/>
<path d="M717.934 674.414C718.185 674.425 718.383 674.638 718.373 674.888C718.363 675.137 718.149 675.333 717.899 675.322C717.648 675.311 717.449 675.097 717.459 674.848C717.469 674.598 717.683 674.403 717.934 674.414Z" fill="white"/>
<path d="M717.929 673.543C717.948 673.048 718.367 672.665 718.865 672.687C719.362 672.709 719.75 673.127 719.731 673.622C719.712 674.116 719.293 674.499 718.796 674.478C718.298 674.456 717.91 674.037 717.929 673.543Z" fill="white"/>
<path d="M719.785 671.265C720.735 671.307 721.581 671.727 722.18 672.374C722.779 673.02 723.131 673.892 723.094 674.836C723.058 675.78 722.639 676.618 721.993 677.21C721.346 677.802 720.471 678.147 719.521 678.105C718.571 678.064 717.725 677.643 717.126 676.997C716.527 676.35 716.175 675.478 716.211 674.534C716.248 673.59 716.666 672.752 717.313 672.16C717.96 671.569 718.835 671.223 719.785 671.265ZM717.494 676.66C718.006 677.214 718.729 677.571 719.54 677.607C720.351 677.642 721.098 677.349 721.652 676.843C722.206 676.336 722.561 675.62 722.592 674.814C722.624 674.008 722.325 673.263 721.812 672.71C721.299 672.157 720.577 671.799 719.766 671.764C718.954 671.728 718.207 672.021 717.653 672.528C717.099 673.034 716.744 673.75 716.713 674.556C716.682 675.362 716.981 676.107 717.494 676.66Z" fill="white"/>
<path d="M699.913 653.084C700.407 653.105 700.797 653.526 700.778 654.017C700.759 654.508 700.338 654.893 699.844 654.872C699.35 654.85 698.96 654.429 698.979 653.938C698.998 653.447 699.419 653.062 699.913 653.084Z" fill="white"/>
<path d="M699.91 651.372C699.947 650.399 700.771 649.645 701.751 649.688C702.73 649.731 703.493 650.554 703.455 651.527C703.418 652.5 702.593 653.254 701.614 653.211C700.635 653.169 699.872 652.345 699.91 651.372Z" fill="white"/>
<path d="M703.563 646.889C705.433 646.971 707.097 647.798 708.275 649.07C709.454 650.342 710.148 652.058 710.076 653.916C710.004 655.774 709.181 657.423 707.908 658.588C706.635 659.752 704.913 660.431 703.043 660.349C701.173 660.267 699.509 659.44 698.33 658.168C697.152 656.896 696.458 655.18 696.53 653.322C696.602 651.464 697.425 649.815 698.698 648.65C699.971 647.486 701.693 646.807 703.563 646.889ZM699.054 657.506C700.063 658.595 701.485 659.298 703.081 659.368C704.677 659.438 706.148 658.862 707.238 657.865C708.328 656.868 709.027 655.459 709.088 653.873C709.149 652.286 708.561 650.821 707.552 649.732C706.543 648.643 705.121 647.94 703.525 647.87C701.929 647.8 700.458 648.376 699.368 649.373C698.278 650.37 697.579 651.779 697.518 653.365C697.456 654.952 698.045 656.417 699.054 657.506Z" fill="white"/>
<path d="M674.041 636.265C674.272 636.275 674.454 636.471 674.445 636.7C674.436 636.929 674.239 637.109 674.009 637.099C673.779 637.089 673.597 636.892 673.605 636.663C673.614 636.434 673.811 636.255 674.041 636.265Z" fill="white"/>
<path d="M674.04 635.468C674.058 635.014 674.442 634.662 674.899 634.682C675.356 634.703 675.712 635.087 675.695 635.541C675.677 635.995 675.293 636.347 674.836 636.327C674.379 636.307 674.023 635.922 674.04 635.468Z" fill="white"/>
<path d="M675.746 633.375C676.618 633.413 677.395 633.8 677.945 634.393C678.495 634.987 678.818 635.788 678.785 636.655C678.751 637.522 678.367 638.291 677.773 638.835C677.179 639.378 676.375 639.695 675.503 639.657C674.63 639.619 673.854 639.232 673.304 638.639C672.754 638.045 672.43 637.244 672.464 636.377C672.497 635.51 672.881 634.741 673.475 634.197C674.069 633.654 674.873 633.337 675.746 633.375ZM673.641 638.33C674.112 638.838 674.776 639.166 675.521 639.199C676.265 639.231 676.952 638.962 677.46 638.497C677.969 638.032 678.295 637.375 678.324 636.634C678.353 635.894 678.078 635.21 677.607 634.702C677.136 634.194 676.473 633.866 675.728 633.833C674.983 633.8 674.297 634.069 673.788 634.535C673.279 635 672.953 635.657 672.924 636.398C672.896 637.138 673.17 637.822 673.641 638.33Z" fill="white"/>
<path d="M661.119 619.519C661.35 619.529 661.532 619.725 661.523 619.954C661.514 620.183 661.318 620.363 661.087 620.353C660.857 620.343 660.675 620.146 660.684 619.917C660.692 619.688 660.889 619.509 661.119 619.519Z" fill="white"/>
<path d="M661.118 618.722C661.136 618.268 661.52 617.916 661.977 617.936C662.434 617.956 662.79 618.341 662.773 618.795C662.755 619.249 662.371 619.601 661.914 619.581C661.457 619.561 661.101 619.176 661.118 618.722Z" fill="white"/>
<path d="M662.824 616.629C663.696 616.667 664.473 617.054 665.023 617.647C665.573 618.241 665.897 619.041 665.863 619.908C665.83 620.775 665.445 621.545 664.851 622.088C664.257 622.632 663.453 622.949 662.581 622.911C661.709 622.872 660.932 622.486 660.382 621.893C659.832 621.299 659.508 620.498 659.542 619.631C659.575 618.764 659.959 617.995 660.553 617.451C661.147 616.908 661.951 616.591 662.824 616.629ZM660.719 621.584C661.19 622.092 661.854 622.42 662.599 622.453C663.344 622.485 664.03 622.216 664.539 621.751C665.047 621.286 665.373 620.628 665.402 619.888C665.431 619.148 665.156 618.464 664.685 617.956C664.214 617.448 663.551 617.12 662.806 617.087C662.061 617.054 661.375 617.323 660.866 617.789C660.358 618.254 660.031 618.911 660.003 619.651C659.974 620.392 660.249 621.076 660.719 621.584Z" fill="white"/>
<path d="M634.828 602.839C635.574 602.872 636.164 603.508 636.135 604.249C636.107 604.991 635.47 605.574 634.724 605.541C633.977 605.508 633.388 604.872 633.416 604.13C633.445 603.389 634.082 602.806 634.828 602.839Z" fill="white"/>
<path d="M634.813 600.253C634.87 598.783 636.116 597.644 637.595 597.709C639.074 597.774 640.227 599.018 640.171 600.488C640.114 601.958 638.868 603.097 637.389 603.032C635.91 602.967 634.757 601.723 634.813 600.253Z" fill="white"/>
<path d="M640.343 593.475C643.169 593.599 645.683 594.85 647.465 596.772C649.246 598.694 650.294 601.287 650.185 604.094C650.077 606.902 648.832 609.394 646.909 611.154C644.985 612.913 642.383 613.94 639.558 613.816C636.732 613.692 634.218 612.441 632.436 610.519C630.655 608.597 629.607 606.004 629.716 603.197C629.824 600.389 631.069 597.897 632.992 596.138C634.916 594.378 637.518 593.351 640.343 593.475ZM633.53 609.519C635.055 611.165 637.203 612.227 639.615 612.333C642.027 612.439 644.25 611.568 645.897 610.061C647.543 608.555 648.6 606.426 648.693 604.029C648.785 601.632 647.896 599.417 646.371 597.772C644.846 596.127 642.698 595.064 640.286 594.958C637.874 594.853 635.651 595.723 634.004 597.23C632.358 598.736 631.301 600.865 631.208 603.262C631.116 605.659 632.005 607.874 633.53 609.519Z" fill="white"/>
<g style="mix-blend-mode:hue">
<path d="M415.584 3044.84C-187.994 3080.85 -985.642 2495.79 -1030.35 1871.4C-1075.06 1247 -807.548 581.817 -203.971 545.805C399.606 509.793 1319.43 843.078 1364.13 1467.47C1408.84 2091.87 1019.16 3008.83 415.584 3044.84Z" fill="#075A5A"/>
</g>
<g style="mix-blend-mode:saturation">
<path d="M415.584 3044.84C-187.994 3080.85 -985.642 2495.79 -1030.35 1871.4C-1075.06 1247 -807.548 581.817 -203.971 545.805C399.606 509.793 1319.43 843.078 1364.13 1467.47C1408.84 2091.87 1019.16 3008.83 415.584 3044.84Z" fill="#075A5A"/>
</g>
</g>
</g>
</g>
<path d="M564.531 554.818L652.411 618.386" stroke="url(#paint3_linear_2076_3704)" stroke-width="2.43187" stroke-linecap="round"/>
<path d="M822.773 541.1L754.944 601.518" stroke="url(#paint4_linear_2076_3704)" stroke-width="2.43187" stroke-linecap="round"/>
<path d="M839.578 622.479L775.993 638.515" stroke="url(#paint5_linear_2076_3704)" stroke-width="2.43187" stroke-linecap="round"/>
<path d="M548.031 683.58L605.821 676.637" stroke="url(#paint6_linear_2076_3704)" stroke-width="2.43187" stroke-linecap="round"/>
<path d="M561 639.26L631.929 642.193" stroke="url(#paint7_linear_2076_3704)" stroke-width="2.43187" stroke-linecap="round"/>
<path d="M583.406 854.844L643.932 825.434" stroke="url(#paint8_linear_2076_3704)" stroke-width="2.43187" stroke-linecap="round"/>
<path d="M828.688 740.348L790.413 763.151" stroke="url(#paint9_linear_2076_3704)" stroke-width="2.43187" stroke-linecap="round"/>
<path d="M805.953 838.756L777.891 803.876" stroke="url(#paint10_linear_2076_3704)" stroke-width="2.43187" stroke-linecap="round"/>
<path d="M790.711 916.104L754.936 842.068" stroke="url(#paint11_linear_2076_3704)" stroke-width="2.43187" stroke-linecap="round"/>
<path d="M625.469 900.537L663.133 848.807" stroke="url(#paint12_linear_2076_3704)" stroke-width="2.43187" stroke-linecap="round"/>
<path d="M228.018 840.13C227.992 840.1 227.966 840.071 227.94 840.042Z" fill="#075A5A"/>
<path d="M226.214 817.729C226.119 817.62 226.024 817.51 225.929 817.401C226.023 817.51 226.118 817.619 226.213 817.728L226.214 817.729Z" fill="#075A5A"/>
<path d="M246.343 715.825L246.344 715.827Z" fill="#075A5A"/>
<path d="M227.26 606.823C227.26 606.823 227.26 606.823 227.26 606.823Z" fill="#075A5A"/>
<path d="M249.276 829.136C249.276 829.136 249.276 829.136 249.276 829.136Z" fill="#075A5A"/>
<path fill-rule="evenodd" clip-rule="evenodd" d="M210.995 839.477L210.982 839.477C207.415 839.526 204.012 840.996 201.518 843.567C199.025 846.136 197.643 849.596 197.676 853.191C197.724 854.967 199.131 856.385 201.921 857.374C204.653 858.343 208.265 858.711 211.653 858.628L211.658 858.628C213.364 858.592 215.066 858.428 216.748 858.138L218.359 857.86L218.184 859.486C218.088 860.374 218.051 861.268 218.073 862.161C218.145 865.119 220.644 867.504 225.272 869.145C229.813 870.756 235.923 871.448 242.088 871.296L242.099 871.296L242.111 871.296C247.598 871.261 253.044 870.341 258.242 868.569C261.543 867.312 263.396 865.873 264.417 864.56C265.424 863.264 265.682 862.016 265.658 860.997C265.536 857.339 264.523 853.768 262.709 850.598C260.894 847.426 258.333 844.753 255.252 842.813L253.747 841.866L255.161 840.788C263.552 834.391 270.435 826.206 275.318 816.817C279.874 807.065 281.238 795.197 279.423 779.357L279.423 779.354L279.422 779.352C278.932 774.901 278.218 770.425 277.515 766.019L277.395 765.268C276.023 757.518 275.106 749.694 274.65 741.835L274.649 741.82L274.648 741.805C273.944 720.899 280.676 700.802 295.66 678.617L296.863 676.848L294.879 677.827C277.96 686.156 261.291 696.091 251.254 716.148L250.134 718.385L247.402 712.759C247.283 712.53 247.163 712.302 247.043 712.072C242.681 703.726 237.956 694.682 237.722 685.165L237.721 685.143L237.721 685.122C237.782 679.25 238.591 673.411 240.129 667.747L240.132 667.737L240.135 667.727C242.012 661.252 242.76 654.497 242.344 647.764C241.131 641.472 239.041 635.384 236.136 629.681L236.114 629.637L236.095 629.591C236.013 629.392 235.93 629.193 235.848 628.993L235.83 628.95C234.001 624.52 232.165 620.076 231.233 615.736C230.248 611.152 230.242 606.573 232.34 602.11L232.341 602.107L233.217 600.264L231.599 601.229C221.749 607.379 210.112 614.74 206.786 627.23C205.596 632.589 205.321 638.113 205.973 643.566L205.973 643.567C206.558 648.512 206.422 653.515 205.569 658.42L205.563 658.45L205.557 658.48C204.778 661.93 203.803 665.332 202.637 668.669L202.635 668.675L202.633 668.681C201.276 672.443 200.176 676.295 199.34 680.208C197.537 689.751 201.247 700.186 204.125 708.214C206.967 716.139 210.056 725.772 207 735.143L206.993 735.165L206.985 735.186C204.939 740.751 202.18 746.022 198.777 750.867C196.411 754.412 194.279 758.11 192.396 761.937C188.052 771.684 186.916 782.576 189.154 793.022C191.393 803.468 196.889 812.921 204.838 820C207.563 822.262 210.413 824.367 213.374 826.304L213.387 826.312L213.41 826.328C214.768 827.264 216.141 828.21 217.487 829.19C222.009 832.314 226.115 836.009 229.704 840.183L230.676 841.314L229.383 842.057C227.687 843.031 226.119 844.215 224.715 845.582L223.676 846.593L222.844 845.405C221.514 843.504 219.735 841.967 217.668 840.933C215.602 839.898 213.312 839.398 211.007 839.476L210.995 839.477ZM251.431 723.729L251.433 723.732L251.434 723.736C256.577 735.761 257.305 746.036 253.108 753.914C251.717 756.597 249.963 759.072 247.896 761.269L247.88 761.286L244.381 764.726C242.375 766.7 240.502 768.807 238.775 771.033C234.643 776.585 232.192 783.222 231.719 790.147C231.245 797.067 232.767 803.978 236.1 810.049C237.358 812.141 238.718 814.168 240.176 816.123L240.181 816.129L240.185 816.136C241.579 818.056 242.907 819.925 244.083 821.938L244.085 821.941L244.086 821.943C244.221 822.177 244.344 822.419 244.454 822.666C245.45 824.465 246.263 826.361 246.878 828.325C247.598 830.565 248.079 832.876 248.313 835.218L248.315 835.234L248.316 835.249C248.389 836.222 248.413 837.198 248.388 838.174L248.348 839.719L246.85 839.337C246.247 839.184 245.634 839.074 245.015 839.009L244.981 839.005L244.947 839C244.074 838.859 243.19 838.793 242.305 838.802L242.267 838.803L242.229 838.801C241.864 838.782 241.498 838.791 241.133 838.828L241.087 838.832L239.809 838.864L239.463 838.149C239.112 837.427 238.735 836.712 238.332 836.034C235.098 830.592 231.351 825.476 227.143 820.757L227.116 820.726L227.09 820.693C226.515 819.953 225.924 819.274 225.308 818.567C225.05 818.27 224.787 817.969 224.52 817.656L224.517 817.652L224.37 817.484C217.34 809.38 209.049 799.821 209.368 786.482L209.368 786.481C209.469 782.376 210.938 778.48 213.042 774.707C215.141 770.943 217.926 767.212 220.731 763.458C225.926 756.434 231.027 749.508 232.157 741.943C233.151 734.4 231.875 726.73 228.494 719.925L228.478 719.893L228.464 719.859C228.437 719.798 228.399 719.742 228.352 719.696C228.304 719.651 228.249 719.615 228.188 719.592C228.128 719.569 228.064 719.558 228.001 719.56C227.937 719.563 227.874 719.578 227.815 719.605L227.8 719.612L227.784 719.619C227.722 719.646 227.665 719.685 227.617 719.735C227.57 719.784 227.532 719.843 227.506 719.909C227.48 719.974 227.467 720.044 227.469 720.115C227.47 720.177 227.481 720.238 227.503 720.295C230.837 726.881 232.138 734.319 231.241 741.654L231.239 741.667L231.237 741.68C230.697 745.428 229.085 749.05 227.037 752.524C225.062 755.876 222.634 759.165 220.286 762.348L220.027 762.698L220.023 762.703C217.122 766.549 214.254 770.378 212.077 774.338C209.904 778.289 208.464 782.294 208.361 786.469L208.361 786.471C208.006 800.2 216.562 810.122 223.783 818.403L223.792 818.413L226.364 821.491C230.753 826.361 234.619 831.683 237.897 837.37L238.777 838.898L237.04 839.201C235.479 839.474 233.953 839.921 232.491 840.533L231.646 840.887L231.063 840.181C227.309 835.634 222.945 831.635 218.098 828.297L218.084 828.287L213.929 825.254C210.977 823.376 208.139 821.319 205.434 819.095L205.415 819.08L205.397 819.063C197.652 812.164 192.297 802.959 190.108 792.788C187.919 782.617 189.011 772.009 193.225 762.508L193.236 762.483L193.248 762.459C195.131 758.671 197.252 755.008 199.598 751.493L199.607 751.481L199.615 751.469C203.068 746.554 205.857 741.199 207.91 735.544C210.924 726.021 208.017 716.233 205.029 707.929L205.015 707.888C202.054 699.661 198.563 689.959 200.283 680.481L200.286 680.462L200.29 680.444C201.115 676.575 202.209 672.769 203.564 669.054C204.756 665.734 205.762 662.349 206.578 658.915C207.441 653.936 207.592 648.858 207.026 643.835C206.354 638.442 206.6 632.973 207.754 627.664L207.76 627.636L207.767 627.609C210.417 617.641 218.491 611.059 227.983 604.868L230.401 603.291L229.869 606.129C228.404 613.938 231.776 621.853 235.323 629.999C238.093 635.636 240.06 641.638 241.166 647.827L241.179 647.897L241.183 647.969C241.588 654.597 240.843 661.245 238.983 667.615C237.374 673.349 236.529 679.273 236.469 685.231C236.998 695.249 241.704 704.297 246.415 713.284L246.417 713.289L246.42 713.295C246.749 713.936 247.085 714.581 247.424 715.229L247.425 715.231L247.425 715.231C248.114 716.552 248.811 717.885 249.457 719.232L249.572 719.471L249.577 719.68C250.265 721.062 250.869 722.436 251.431 723.729ZM245.012 765.636L245.113 769.732C245.178 770.662 245.247 771.588 245.315 772.507L245.316 772.514C245.546 775.62 245.77 778.643 245.839 781.457L245.885 783.314C246.756 794.853 246.619 806.446 245.475 817.96L245.146 821.267L241.076 815.466C239.64 813.546 238.307 811.549 237.085 809.484L237.075 809.468L237.066 809.452C233.82 803.575 232.333 796.88 232.784 790.173C233.234 783.467 235.604 777.035 239.608 771.654L239.616 771.643L239.624 771.632C240.659 770.304 241.785 769.049 242.957 767.81L245.012 765.636ZM274.159 816.324L274.144 816.357L274.127 816.39C268.952 826.069 261.675 834.45 252.837 840.906L252.225 841.353L251.55 841.009C251.083 840.772 250.601 840.563 250.108 840.384L249.26 840.077L249.296 839.175C249.336 838.179 249.311 837.18 249.223 836.187L249.184 835.752L249.427 835.39C258.137 822.406 265.964 801.784 262.769 771.173C262.747 771.024 262.671 770.889 262.556 770.796C262.445 770.705 262.305 770.66 262.165 770.667C262.03 770.686 261.906 770.756 261.818 770.866C261.726 770.979 261.681 771.126 261.695 771.275C264.7 799.811 257.949 819.354 250.759 831.496L249.158 834.2L248.492 831.129C247.887 828.339 246.938 825.635 245.667 823.081L245.49 822.726L245.554 822.334C247.047 813.111 247.596 803.758 247.193 794.422L247.193 794.41L246.873 781.374C246.776 778.443 246.551 775.292 246.314 771.969C246.26 771.211 246.205 770.444 246.152 769.668C245.893 768.216 245.856 766.743 245.823 765.378L245.808 764.779L246.214 764.401C249.306 761.52 251.955 758.192 254.076 754.527C258.614 745.836 257.759 734.348 251.046 720.233L250.802 719.72L251.033 719.201C259.56 700.074 274.304 689.791 289.312 681.849L293.354 679.71L290.936 683.591C278.309 703.862 272.737 722.496 273.392 741.768C273.836 749.676 274.756 757.55 276.147 765.347L276.149 765.357L276.151 765.367C276.889 769.949 277.635 774.739 278.191 779.414C280.022 794.846 278.679 806.496 274.159 816.324ZM237.549 869.907L236.023 869.945L235.966 869.941C231.297 869.623 227.199 868.781 224.211 867.492C221.331 866.249 218.997 864.362 218.91 861.709L218.91 861.705L218.91 861.701C218.875 860.4 218.976 859.099 219.209 857.819C219.304 857.082 219.465 856.355 219.691 855.647C219.909 854.764 220.211 853.905 220.593 853.08C220.898 852.315 221.269 851.577 221.703 850.877C222.136 850.075 222.639 849.314 223.207 848.602C223.642 848.005 224.115 847.438 224.623 846.902C226.262 845.118 228.182 843.618 230.308 842.465L230.311 842.463L230.315 842.461C230.816 842.193 231.368 841.914 231.962 841.663C232.544 841.379 233.147 841.14 233.766 840.95C234.395 840.698 235.042 840.494 235.702 840.339C236.542 840.106 237.399 839.939 238.265 839.84L238.276 839.839L238.287 839.838C239.016 839.767 239.749 839.748 240.481 839.781L242.432 839.733L242.456 839.733C243.864 839.753 245.267 839.919 246.641 840.228L247.285 840.212L249.243 840.827L249.244 840.828C249.841 841.014 250.427 841.235 250.998 841.489C251.793 841.806 252.56 842.191 253.29 842.639C256.527 844.399 259.251 846.98 261.193 850.125C263.14 853.279 264.233 856.891 264.362 860.602L264.362 860.608L264.362 860.614C264.4 862.177 263.557 863.507 262.349 864.562C261.141 865.618 259.451 866.512 257.456 867.246C253.457 868.719 247.956 869.652 241.833 869.802L239.395 869.862C238.781 869.908 238.165 869.924 237.549 869.907ZM218.586 855.788L218.389 856.524L217.643 856.678C215.598 857.098 213.521 857.335 211.434 857.385C207.928 857.471 204.9 857.077 202.695 856.422C201.598 856.096 200.648 855.689 199.936 855.203C199.277 854.753 198.553 854.046 198.49 853.052L198.488 853.008L198.488 852.965C198.515 849.655 199.846 846.49 202.191 844.165C204.529 841.846 207.686 840.553 210.971 840.568C213.249 840.487 215.507 841.017 217.514 842.102C219.53 843.191 221.22 844.801 222.411 846.765L222.848 847.485L222.336 848.154C220.6 850.425 219.326 853.019 218.586 855.788Z" fill="#075A5A"/>
<path d="M992.821 778.669L708.157 864.965C609.713 894.808 504.261 892.035 407.521 857.059L251.829 800.769C154.042 765.415 44.5923 795.842 -20.9167 876.593L-76.2063 944.747C-131.906 1013.41 -233.092 1023.03 -300.739 966.106C-415.977 869.13 -588.685 972.982 -557.062 1120.24L-518.687 1298.94C-496.101 1404.12 -400.964 1477.67 -293.492 1473.06L1169.34 1410.24C1201.58 1408.85 1233.87 1409.83 1265.96 1413.16L2094.42 1499.13C2345.17 1525.15 2550.1 1302.12 2502.99 1054.47L2488.49 978.216C2454.81 801.119 2276 691.457 2102.88 741.718L1961.66 802.107C1798.85 871.73 1614.91 873.143 1451.05 806.029L1435.27 799.566C1294.58 741.941 1138.32 734.561 992.821 778.669Z" fill="#075A5A"/>
</g>
<defs>
<filter id="filter0_di_2076_3704" x="305.417" y="254.942" width="1306.49" height="1336.72" filterUnits="userSpaceOnUse" color-interpolation-filters="sRGB">
<feFlood flood-opacity="0" result="BackgroundImageFix"/>
<feColorMatrix in="SourceAlpha" type="matrix" values="0 0 0 0 0 0 0 0 0 0 0 0 0 0 0 0 0 0 127 0" result="hardAlpha"/>
<feOffset dy="64.8588"/>
<feGaussianBlur stdDeviation="145.932"/>
<feComposite in2="hardAlpha" operator="out"/>
<feColorMatrix type="matrix" values="0 0 0 0 0.566667 0 0 0 0 0.566667 0 0 0 0 0.566667 0 0 0 0.25 0"/>
<feBlend mode="normal" in2="BackgroundImageFix" result="effect1_dropShadow_2076_3704"/>
<feBlend mode="normal" in="SourceGraphic" in2="effect1_dropShadow_2076_3704" result="shape"/>
<feColorMatrix in="SourceAlpha" type="matrix" values="0 0 0 0 0 0 0 0 0 0 0 0 0 0 0 0 0 0 127 0" result="hardAlpha"/>
<feOffset dy="46.3277"/>
<feGaussianBlur stdDeviation="27.7966"/>
<feComposite in2="hardAlpha" operator="arithmetic" k2="-1" k3="1"/>
<feColorMatrix type="matrix" values="0 0 0 0 1 0 0 0 0 1 0 0 0 0 1 0 0 0 0.25 0"/>
<feBlend mode="normal" in2="shape" result="effect2_innerShadow_2076_3704"/>
</filter>
<linearGradient id="paint0_linear_2076_3704" x1="1263.01" y1="836.245" x2="598.891" y2="883.797" gradientUnits="userSpaceOnUse">
<stop stop-color="#075A5A"/>
<stop offset="1" stop-color="#136969"/>
</linearGradient>
<linearGradient id="paint1_linear_2076_3704" x1="1263.01" y1="836.245" x2="598.891" y2="883.797" gradientUnits="userSpaceOnUse">
<stop stop-color="#075A5A"/>
<stop offset="1" stop-color="#136969"/>
</linearGradient>
<linearGradient id="paint2_linear_2076_3704" x1="682.53" y1="571.119" x2="534.851" y2="901.341" gradientUnits="userSpaceOnUse">
<stop stop-color="white"/>
<stop offset="1" stop-color="white" stop-opacity="0"/>
</linearGradient>
<linearGradient id="paint3_linear_2076_3704" x1="686.268" y1="639.843" x2="589.671" y2="572.178" gradientUnits="userSpaceOnUse">
<stop stop-color="#075A5A"/>
<stop offset="1" stop-color="#0B5C5C" stop-opacity="0"/>
</linearGradient>
<linearGradient id="paint4_linear_2076_3704" x1="731.559" y1="625.639" x2="804.477" y2="559.008" gradientUnits="userSpaceOnUse">
<stop stop-color="#075A5A"/>
<stop offset="1" stop-color="#0B5C5C" stop-opacity="0"/>
</linearGradient>
<linearGradient id="paint5_linear_2076_3704" x1="753.139" y1="646.813" x2="822.123" y2="628.741" gradientUnits="userSpaceOnUse">
<stop stop-color="#075A5A"/>
<stop offset="1" stop-color="#0B5C5C" stop-opacity="0"/>
</linearGradient>
<linearGradient id="paint6_linear_2076_3704" x1="626.845" y1="671.636" x2="564.064" y2="679.697" gradientUnits="userSpaceOnUse">
<stop stop-color="#075A5A"/>
<stop offset="1" stop-color="#0B5C5C" stop-opacity="0"/>
</linearGradient>
<linearGradient id="paint7_linear_2076_3704" x1="658.195" y1="640.819" x2="581.034" y2="638.395" gradientUnits="userSpaceOnUse">
<stop stop-color="#075A5A"/>
<stop offset="1" stop-color="#0B5C5C" stop-opacity="0"/>
</linearGradient>
<linearGradient id="paint8_linear_2076_3704" x1="665.184" y1="812.375" x2="599.668" y2="844.975" gradientUnits="userSpaceOnUse">
<stop stop-color="#075A5A"/>
<stop offset="1" stop-color="#0B5C5C" stop-opacity="0"/>
</linearGradient>
<linearGradient id="paint9_linear_2076_3704" x1="777.552" y1="773.674" x2="819.02" y2="748.617" gradientUnits="userSpaceOnUse">
<stop stop-color="#075A5A"/>
<stop offset="1" stop-color="#0B5C5C" stop-opacity="0"/>
</linearGradient>
<linearGradient id="paint10_linear_2076_3704" x1="765.625" y1="792.551" x2="796.379" y2="830.29" gradientUnits="userSpaceOnUse">
<stop stop-color="#075A5A"/>
<stop offset="1" stop-color="#0B5C5C" stop-opacity="0"/>
</linearGradient>
<linearGradient id="paint11_linear_2076_3704" x1="739.526" y1="815.828" x2="779.353" y2="895.884" gradientUnits="userSpaceOnUse">
<stop stop-color="#075A5A"/>
<stop offset="1" stop-color="#0B5C5C" stop-opacity="0"/>
</linearGradient>
<linearGradient id="paint12_linear_2076_3704" x1="675.04" y1="828.278" x2="634.586" y2="884.897" gradientUnits="userSpaceOnUse">
<stop stop-color="#075A5A"/>
<stop offset="1" stop-color="#0B5C5C" stop-opacity="0"/>
</linearGradient>
<clipPath id="clip0_2076_3704">
<rect width="1512" height="900" fill="white"/>
</clipPath>
</defs>
</svg>
