<svg width="1512" height="301" viewBox="0 0 1512 301" fill="none" xmlns="http://www.w3.org/2000/svg">
<g clip-path="url(#clip0_2082_4629)">
<rect width="1512" height="301" fill="#B6DFDF"/>
<path opacity="0.5" d="M85.758 109.185L-54 64.4601V305H1683V-65L1647.63 14.8621C1625.52 64.8055 1571.76 92.7725 1518.17 82.2161L1507.98 80.209C1461.06 70.9664 1413.9 95.0187 1393.84 138.429C1370.43 189.072 1311.14 212.108 1259.68 190.554L1237.82 181.398C1196.11 163.929 1148.29 169.713 1111.95 196.62L1060.58 234.66C1017.59 266.493 959.367 268.347 914.437 239.314L828.754 183.947C794.499 161.811 751.766 157.261 713.617 171.686L539.717 237.444C506.171 250.129 468.849 248.211 436.78 232.152L401.046 214.259C369.332 198.379 331.465 201.16 302.411 221.503C253.199 255.962 184.804 237.606 159.457 183.138L152.365 167.897C139.331 139.888 115.182 118.601 85.758 109.185Z" fill="#075A5A"/>
<path d="M1122.08 157.637C1127.2 150.577 1138.36 154.188 1138.37 162.906L1138.4 188.17C1138.41 192.069 1140.92 195.521 1144.63 196.721L1168.67 204.497C1176.97 207.181 1176.98 218.911 1168.69 221.616L1144.68 229.454C1140.97 230.664 1138.46 234.123 1138.47 238.022L1138.5 263.286C1138.51 272.004 1127.36 275.644 1122.23 268.597L1107.35 248.177C1105.05 245.026 1100.99 243.711 1097.28 244.921L1073.27 252.759C1064.98 255.464 1058.07 245.982 1063.19 238.922L1078.01 218.464C1080.3 215.307 1080.29 211.035 1078 207.884L1063.12 187.464C1057.99 180.417 1064.87 170.918 1073.16 173.602L1097.2 181.378C1100.91 182.578 1104.97 181.253 1107.26 178.095L1122.08 157.637Z" fill="#F28F57"/>
<path d="M121.174 162.486L0 120.888V301H1512V0L1479.39 78.9925C1461.37 122.651 1414.77 147.24 1368.56 137.476L1363.2 136.343C1320.66 127.354 1277.68 149.612 1260.47 189.543C1240.3 236.359 1185.7 257.588 1139.2 236.695L1125.09 230.353C1088.75 214.028 1046.35 219.334 1015.16 244.11L982.679 269.908C938.337 305.129 876.16 307.155 829.619 274.893L778.077 239.165C742.457 214.473 696.787 209.411 656.625 225.703L524.349 279.359C490.554 293.068 452.41 291.014 420.283 273.756L396.78 261.131C369.045 246.233 335.182 248.8 310.01 267.708C268.244 299.08 208.135 283.177 187.347 235.256L178.943 215.883C168.044 190.759 147.078 171.378 121.174 162.486Z" fill="#075A5A"/>
</g>
<defs>
<clipPath id="clip0_2082_4629">
<rect width="1512" height="301" fill="#F28F57"/>
</clipPath>
</defs>
</svg>
