<svg width="1512" height="301" viewBox="0 0 1512 301" fill="none" xmlns="http://www.w3.org/2000/svg">
<g clip-path="url(#clip0_2082_4626)">
<rect width="1512" height="301" transform="matrix(-1 0 0 1 1512 0)" fill="#DBF2F2"/>
<path d="M1426.24 109.185L1566 64.4601V305H-171V-65L-135.634 14.8621C-113.518 64.8055 -59.7606 92.7725 -6.16907 82.2161L4.02002 80.209C50.9418 70.9664 98.0974 95.0187 118.163 138.429C141.572 189.072 200.862 212.108 252.322 190.554L274.182 181.398C315.887 163.929 363.71 169.713 400.048 196.62L451.421 234.66C494.413 266.493 552.633 268.347 597.563 239.314L683.246 183.947C717.501 161.811 760.234 157.261 798.383 171.686L972.283 237.444C1005.83 250.129 1043.15 248.211 1075.22 232.152L1110.95 214.259C1142.67 198.379 1180.54 201.16 1209.59 221.503C1258.8 255.962 1327.2 237.606 1352.54 183.138L1359.63 167.897C1372.67 139.888 1396.82 118.601 1426.24 109.185Z" fill="#D1EDED"/>
<path d="M1390.83 162.486L1512 120.888V301H0V0L32.6086 78.9925C50.6311 122.651 97.2325 147.24 143.444 137.476L148.802 136.343C191.343 127.354 234.322 149.612 251.528 189.543C271.7 236.359 326.3 257.588 372.798 236.695L386.913 230.353C423.246 214.028 465.652 219.334 496.843 244.11L529.321 269.908C573.663 305.129 635.84 307.155 682.381 274.893L733.923 239.165C769.543 214.473 815.213 209.411 855.375 225.703L987.651 279.359C1021.45 293.068 1059.59 291.014 1091.72 273.756L1115.22 261.131C1142.96 246.233 1176.82 248.8 1201.99 267.708C1243.76 299.08 1303.87 283.177 1324.65 235.256L1333.06 215.883C1343.96 190.759 1364.92 171.378 1390.83 162.486Z" fill="#B6DFDF"/>
</g>
<defs>
<clipPath id="clip0_2082_4626">
<rect width="1512" height="301" fill="white" transform="matrix(-1 0 0 1 1512 0)"/>
</clipPath>
</defs>
</svg>
